<?xml version="1.0" encoding="UTF-8"?>
<svg width="64" height="64" version="1.1" viewBox="0 0 16.933 16.933" xml:space="preserve" xmlns="http://www.w3.org/2000/svg"><path d="m5.9416 3.0397c-0.18664 0.0064-0.36109 0.0522-0.51727 0.14262-0.31236 0.18085-0.5049 0.51387-0.59478 0.93532-0.089888 0.42145-0.083161 0.93828 0.00982 1.5203 0.042276 0.26463 0.10456 0.54435 0.1819 0.83352-0.28817 0.07743-0.56072 0.16334-0.81027 0.25889-0.54913 0.21027-0.99974 0.461-1.3188 0.74981-0.31901 0.2888-0.51159 0.62508-0.51159 0.98648 0 0.36141 0.19257 0.69561 0.51159 0.98442 0.31901 0.2888 0.76962 0.53954 1.3188 0.74981 0.24984 0.09567 0.52276 0.18176 0.8113 0.25941-0.077279 0.28946-0.13959 0.56975-0.1819 0.83456-0.09298 0.58201-0.10126 1.0973-0.011369 1.5187 0.089888 0.42145 0.28295 0.75757 0.5953 0.93842s0.69748 0.1802 1.1064 0.04754c0.40889-0.13266 0.8518-0.39666 1.3079-0.76841 0.20712-0.16882 0.41758-0.36267 0.62837-0.57411 0.21089 0.21157 0.42166 0.40573 0.62889 0.57463 0.4561 0.37176 0.8985 0.63576 1.3074 0.76841 0.40889 0.13266 0.7935 0.13176 1.1059-0.04909 0.31235-0.18085 0.50645-0.5149 0.59633-0.93636 0.08989-0.42145 0.08161-0.93725-0.01137-1.5193-0.0423-0.2648-0.10448-0.54517-0.1819-0.83456 0.28894-0.0777 0.56232-0.16419 0.81234-0.25993 0.54913-0.21027 0.99716-0.46101 1.3162-0.74981 0.31901-0.2888 0.51159-0.62301 0.51159-0.98442 0-0.36141-0.19257-0.69768-0.51159-0.98648-0.31902-0.28881-0.76704-0.53954-1.3162-0.74981-0.24969-0.09561-0.52279-0.18143-0.8113-0.25889 0.0774-0.28935 0.1396-0.56926 0.1819-0.83404 0.09298-0.58201 0.09867-1.0968 0.0088-1.5182-0.08989-0.42145-0.2814-0.75654-0.59375-0.93739-0.31235-0.18085-0.69955-0.18072-1.1084-0.04806-0.40889 0.13266-0.8487 0.39562-1.3048 0.76738-0.20758 0.1692-0.41853 0.36374-0.62992 0.57566-0.21116-0.21188-0.42192-0.40603-0.62941-0.57515-0.4561-0.37176-0.89695-0.63679-1.3058-0.76945-0.20444-0.06633-0.40349-0.09892-0.59013-0.0925zm0.011368 0.26406c0.14908-0.0044 0.31493 0.02271 0.4966 0.08165 0.36335 0.11788 0.7813 0.36429 1.2201 0.72191 0.20087 0.16372 0.40621 0.35305 0.61287 0.56068-0.39548 0.41793-0.79054 0.90347-1.1704 1.4469-0.65887 0.05805-1.2752 0.1582-1.8334 0.29248-0.075984-0.28334-0.13733-0.55598-0.17828-0.81234-0.089443-0.55987-0.092796-1.0466-0.012919-1.4211s0.23748-0.62937 0.4687-0.76325c0.11561-0.06694 0.24779-0.10262 0.39687-0.10697zm5.028 0c0.14884 0.0048 0.28074 0.04106 0.39635 0.108 0.23122 0.13388 0.38985 0.38718 0.46973 0.7617 0.07988 0.37451 0.07497 0.86276-0.01447 1.4226-0.04087 0.25584-0.10156 0.52819-0.17725 0.81079-0.55882-0.13426-1.1761-0.23397-1.8355-0.29197-0.37932-0.54304-0.77354-1.0287-1.1684-1.4464 0.2064-0.20728 0.41166-0.39658 0.61235-0.56016 0.43876-0.35762 0.85774-0.60557 1.2211-0.72346 0.18168-0.05894 0.34725-0.0859 0.49608-0.08113zm-2.514 1.5565c0.33857 0.359 0.67835 0.77114 1.0092 1.2288-0.32903-0.02127-0.66502-0.03462-1.0097-0.03462-0.34472 0-0.68032 0.01335-1.0092 0.03462 0.33098-0.45782 0.67104-0.86987 1.0097-1.2288zm-5.16e-4 1.4598c0.41444 0 0.81857 0.01695 1.2087 0.04806 0.22192 0.32307 0.43833 0.665 0.64542 1.0247 0.20742 0.3603 0.39503 0.72003 0.56326 1.0748-0.16784 0.35383-0.35478 0.71231-0.56171 1.0717-0.20723 0.35996-0.42439 0.7025-0.64646 1.0258-0.39028 0.03113-0.79458 0.04806-1.2092 0.04806-0.41444 0-0.81857-0.01695-1.2087-0.04806-0.22192-0.32307-0.43833-0.66551-0.64543-1.0252-0.20702-0.35959-0.39425-0.71864-0.56223-1.0728 0.16824-0.35482 0.35584-0.71455 0.56326-1.0748 0.20697-0.35951 0.42323-0.70147 0.64491-1.0242 0.38995-0.03108 0.79391-0.04806 1.2082-0.04806zm1.5477 0.08113c0.5615 0.05836 1.088 0.14741 1.5678 0.262-0.14081 0.4743-0.3273 0.97628-0.55758 1.4934-0.14634-0.29682-0.30276-0.59563-0.47541-0.89554-0.17244-0.29953-0.35193-0.58468-0.53484-0.85988zm-3.0964 5.17e-4c-0.18258 0.27455-0.36228 0.55897-0.53432 0.85781-0.17256 0.29974-0.32874 0.59829-0.4749 0.89502-0.22984-0.5163-0.41582-1.0177-0.55654-1.4914 0.47932-0.11442 1.005-0.20314 1.5658-0.26148zm-1.8236 0.32556c0.16334 0.55205 0.38562 1.1376 0.66506 1.7389-0.2793 0.60183-0.5015 1.1879-0.66455 1.7404-0.28244-0.07553-0.54842-0.15911-0.79012-0.25166-0.52815-0.20223-0.95106-0.44255-1.2345-0.69917-0.28346-0.25662-0.42374-0.52103-0.42374-0.78908 0-0.26805 0.14028-0.53246 0.42374-0.78908 0.28346-0.25662 0.70638-0.49693 1.2345-0.69917 0.24152-0.09248 0.50739-0.17565 0.7896-0.25114zm6.7457 0c0.28187 0.07543 0.54781 0.15876 0.78908 0.25114 0.52815 0.20223 0.95055 0.44255 1.234 0.69917 0.28346 0.25662 0.42374 0.52103 0.42374 0.78908 0 0.26805-0.14028 0.53246-0.42374 0.78908-0.28346 0.25662-0.70586 0.49694-1.234 0.69917-0.2414 0.09243-0.50756 0.17568-0.7896 0.25114-0.16332-0.55202-0.38617-1.1371-0.66558-1.7384 0.2798-0.60182 0.50257-1.1879 0.6661-1.7404zm-3.3729 0.62682a1.1094 1.1126 0 0 0-1.1095 1.1126 1.1094 1.1126 0 0 0 1.1095 1.1126 1.1094 1.1126 0 0 0 1.1095-1.1126 1.1094 1.1126 0 0 0-1.1095-1.1126zm2.5574 1.4242c0.22998 0.51657 0.41629 1.018 0.55706 1.4919-0.4794 0.11446-1.0054 0.20313-1.5663 0.26148 0.18291-0.27519 0.3624-0.56035 0.53484-0.85988 0.17225-0.29921 0.32832-0.59733 0.47438-0.89347zm-5.1148 5.17e-4c0.14606 0.29614 0.30264 0.59426 0.4749 0.89347 0.17244 0.29953 0.35193 0.58468 0.53484 0.85988-0.56096-0.05829-1.0868-0.14707-1.5663-0.26148 0.14072-0.47382 0.32661-0.9753 0.55654-1.4919zm-0.62992 1.7461c0.5583 0.13457 1.1746 0.23466 1.8334 0.293 0.37984 0.54385 0.77453 1.0298 1.1699 1.4479-0.20632 0.20722-0.41181 0.39619-0.61235 0.55964-0.43876 0.35762-0.85774 0.60557-1.2211 0.72346-0.36335 0.11788-0.66122 0.107-0.89243-0.02687-0.23122-0.13388-0.38985-0.38718-0.46973-0.7617-0.079877-0.37451-0.074974-0.86276 0.014469-1.4226 0.040954-0.25635 0.10178-0.52951 0.17776-0.81286zm6.3752 0c0.07605 0.28352 0.13678 0.55687 0.17776 0.81337 0.08944 0.55987 0.09331 1.0466 0.01344 1.4211-0.07988 0.37451-0.23748 0.62937-0.4687 0.76325-0.23122 0.13388-0.53012 0.1432-0.89347 0.02532-0.36335-0.11788-0.78182-0.36429-1.2206-0.7219-0.20071-0.1636-0.40586-0.35273-0.61235-0.56016 0.39542-0.41818 0.79006-0.9046 1.1699-1.4485 0.65883-0.05833 1.2756-0.158 1.834-0.29248zm-4.1981 0.31884c0.32906 0.02143 0.66483 0.03514 1.0097 0.03514 0.34508 0 0.68141-0.01369 1.0108-0.03514-0.33128 0.45824-0.67127 0.8711-1.0103 1.2304-0.33894-0.3593-0.67902-0.77217-1.0103-1.2304z" stroke-width=".26458"/></svg>
