<?xml version="1.0" encoding="UTF-8"?>
<svg width="24" height="24" version="1.1" viewBox="0 0 6.35 6.35" xmlns="http://www.w3.org/2000/svg">
 <path d="m3.175 0.092501a3.0824 3.0824 0 0 0-3.0825 3.0825 3.0824 3.0824 0 0 0 3.0825 3.0825 3.0824 3.0824 0 0 0 3.0825-3.0825 3.0824 3.0824 0 0 0-3.0825-3.0825zm-1.1379 1.2304h1.278c0.86964 0 1.417 0.46719 1.417 1.2134 0 0.79448-0.61199 1.3152-1.5353 1.3152h-0.46715v1.1968h-0.69246v-3.7254zm0.69246 0.60668v1.3203h0.59066c0.44019 0 0.69815-0.22526 0.69815-0.62787 0-0.41335-0.31162-0.69246-0.76791-0.69246h-0.5209z"/>
</svg>
