<?xml version="1.0" encoding="UTF-8"?>
<!-- Created with Inkscape (http://www.inkscape.org/) -->
<svg width="512" height="512" version="1.1" viewBox="0 0 512 512" xml:space="preserve" xmlns="http://www.w3.org/2000/svg"><defs><clipPath id="clipPath17193"><path d="M 0.06,91.886 H 91.888 V 0 H 0.06 Z"/></clipPath></defs><g transform="matrix(1.3333 0 0 -1.3333 1.7881e-5 122.67)"><g transform="matrix(4.1817 0 0 4.1791 -.25091 -292)"><g clip-path="url(#clipPath17193)"><path d="m90.155 50.035-40.119 40.118c-2.31 2.311-6.057 2.311-8.369 0l-8.331-8.332 10.568-10.568c2.456 0.83 5.272 0.273 7.229-1.684 1.969-1.97 2.521-4.81 1.67-7.275l10.186-10.185c2.465 0.85 5.306 0.301 7.275-1.671 2.75-2.749 2.75-7.206 0-9.957-2.752-2.752-7.208-2.752-9.961 0-2.068 2.07-2.58 5.11-1.531 7.658l-9.5 9.499v-24.996c0.67-0.332 1.303-0.775 1.861-1.332 2.75-2.75 2.75-7.206 0-9.96-2.75-2.749-7.209-2.749-9.957 0-2.75 2.754-2.75 7.21 0 9.96 0.68 0.679 1.467 1.193 2.307 1.537v25.228c-0.84 0.343-1.625 0.853-2.307 1.536-2.083 2.082-2.584 5.14-1.515 7.698l-10.418 10.42-27.51-27.508c-2.311-2.313-2.311-6.06 0-8.371l40.121-40.118c2.31-2.31 6.056-2.31 8.369 0l39.932 39.932c2.311 2.311 2.311 6.061 0 8.371"/></g></g></g></svg>
