<?xml version="1.0" encoding="UTF-8"?>
<svg width="512" height="512" version="1.1" viewBox="-10 0 512 512" xmlns="http://www.w3.org/2000/svg">
 <g>
  <path class="fn-svg-icon" d="m246 0c-2.7858 0-5.5717 0.38535-8.2754 1.1582l-210.88 60.25c-12.933 3.6948-21.848 15.517-21.848 28.967v120.38c0 103 60.155 178.38 115.96 226.22 28.171 24.145 56.203 42.152 77.146 54.117 10.505 6.0039 19.314 10.538 25.586 13.607 3.136 1.5363 5.6417 2.7111 7.416 3.5215 0.88868 0.4067 1.5935 0.72127 2.0996 0.94726l0.61523 0.26953 0.19531 0.0859 0.0938 0.0391c7.5794 3.2475 16.179 3.2593 23.756 0.0117l-11.865-27.691c11.866 27.688 11.905 27.668 11.914 27.668l0.0684-0.0254 0.19531-0.0859 0.61524-0.26953c0.5061-0.22589 1.2109-0.54067 2.0996-0.94727 1.7744-0.8104 4.282-1.985 7.418-3.5215 6.272-3.0697 15.079-7.6035 25.584-13.607 20.943-11.966 48.977-29.972 77.146-54.117 55.8-47.832 115.96-123.22 115.96-226.22v-120.38c0-13.45-8.9169-25.272-21.85-28.967l-210.88-60.25c-2.7037-0.77285-5.4896-1.1582-8.2754-1.1582zm0 61.455 180.75 51.643v97.658c0 77.752-45.281 137.93-94.918 180.47-24.549 21.042-49.234 36.927-67.83 47.555-7.0432 4.0217-13.161 7.2625-18.002 9.7207-4.8411-2.4582-10.961-5.699-18.004-9.7207-18.596-10.628-43.282-26.514-67.83-47.557-49.635-42.542-94.916-102.72-94.916-180.47v-97.656z"/>
  <path class="st0" d="m299.03 185.03c0 29.83-23.201 53.032-53.032 53.032s-53.032-23.201-53.032-53.032 23.201-53.032 53.032-53.032 53.032 24.859 53.032 53.032"/>
  <path class="st0" d="m259.26 185.03h-26.516l-26.516 159.1c0 25.573 79.548 25.556 79.548 0l-26.516-159.1"/>
 </g>
</svg>
