<?xml version="1.0" encoding="UTF-8"?>
<svg width="512" height="512" version="1.1" viewBox="0 0 135.47 135.47" xmlns="http://www.w3.org/2000/svg">
 <path d="m122.87 4.8322e-4 -51.908 5.1678e-4c-1.4361 0-2.7285 0.50263-3.8774 1.5079l-5.1373 5.1559c-2.8574 2.8562-2.8583 7.488-0.0021 10.345 2.8563 2.8573 7.4882 2.8579 10.345 0.0015l3.5296-3.5285h38.955v83.513h-1.4506c-3.613-1.6e-5 -6.5419 2.9289-6.5419 6.5419-1e-5 3.613 2.9289 6.5419 6.5419 6.5419h9.5459c1.5797 0 2.8717-0.575 3.8769-1.724 1.0053-1.1489 1.5085-2.4404 1.5085-3.8763v-99.094c0-1.5797-0.50311-2.8722-1.5085-3.8774-1.0053-1.0053-2.2972-1.5079-3.8769-1.5079zm-27.894 25.39-49.633 0.01085c-1.3485 0.04894-2.5688 0.54484-3.6588 1.4986l-32.96 33.174c-1.0053 1.0053-1.508 2.2257-1.508 3.6619v66.134c0 1.4361 0.50263 2.7285 1.508 3.8774 1.0053 1.1489 2.2983 1.7234 3.8779 1.7234h82.372c1.5797 0 2.8722-0.57457 3.8774-1.7234 1.0053-1.1489 1.5085-2.4414 1.5085-3.8774v-99.094c0-1.5797-0.50315-2.8716-1.5085-3.8768-1.0049-1.0049-2.2966-1.508-3.8753-1.5085zm-44.556 13.483h36.458v83.102h-66.181v-53.378l2.1544-2.3699h14.218c3.0158 0 5.601-1.0767 7.7553-3.2309 2.1542-2.1542 3.2309-4.7395 3.2309-7.7552v-14.217zm-13.34 38.951c-3.5902 0-5.3859 1.8669-5.3859 5.6008 0 3.5902 1.7958 5.3858 5.3859 5.3858h33.414c3.5902 0 5.3853-1.7953 5.3853-5.3858 0-3.7339-1.7952-5.6008-5.3853-5.6008h-20.232zm0 21.973c-3.2452 0-5.3859 2.3416-5.3859 5.6008 0 3.1132 2.286 5.3853 5.3859 5.3853h33.414c3.2156 0 5.3853-2.4331 5.3853-5.3853 0-3.2113-2.3773-5.6008-5.3853-5.6008h-20.232z" stroke-width=".26459"/>
</svg>
