<?xml version="1.0" encoding="UTF-8"?>
<svg width="512" height="512" version="1.1" viewBox="0 0 135.47 135.47" xmlns="http://www.w3.org/2000/svg">
 <rect x="44.123" y="16.935" width="28.084" fill="#800000" stroke-width="12.303"/>
 <path d="m72.208 4e-4c-1.4361 0-2.728 0.50268-3.8769 1.508-0.91368 0.92488-1.8729 1.8871-2.7498 2.7684l-4.5559 4.5559c-1.18 1.1799-1.7705 2.47-1.7705 3.8712 0 1.4011 0.59052 2.6923 1.7705 3.8722l-0.0016 1e-3c1.1798 1.18 2.5073 1.7705 3.9823 1.7705 1.4749 0 2.8018-0.59053 3.9818-1.7705l5.59-5.5895h41.443v88.105h-1.7152v1e-3c-3.5902 0-5.3858 2.4994-5.3858 5.6008 0 3.2954 1.7957 5.3853 5.3858 5.3853h7.316c1.5797 0 2.8717-0.57505 3.8769-1.724 1.0053-1.1489 1.5085-2.4404 1.5085-3.8763v-99.094c0-1.5797-0.50315-2.8722-1.5085-3.8774-1.0053-1.0053-2.2972-1.508-3.8769-1.508zm24.015 25.39-49.415 1e-3c-1.4361 0-2.728 0.50317-3.8769 1.5085l-32.96 33.174c-1.0053 1.0053-1.508 2.2257-1.508 3.6619v66.134c0 1.4361 0.50267 2.7285 1.508 3.8774 1.0053 1.1489 2.2983 1.7234 3.8779 1.7234h82.372c1.5797 0 2.8722-0.57453 3.8774-1.7234 1.0053-1.1489 1.508-2.4414 1.508-3.8774v-99.094c0-1.5797-0.50268-2.8717-1.508-3.8769-1.0053-1.0053-2.2977-1.5085-3.8774-1.5085zm-47.044 10.988h41.443v88.105h-71.172v-58.376l2.1544-2.3699h14.218c3.0158 0 5.601-1.0767 7.7553-3.2309 2.1542-2.1542 3.2309-4.7395 3.2309-7.7553v-14.217zm-13.356 43.945c-3.5902 0-5.3858 1.8669-5.3858 5.6008 0 3.5902 1.7957 5.3859 5.3858 5.3859h38.429c3.5902 0 5.3853-1.7954 5.3853-5.3859 0-3.7339-1.7952-5.6008-5.3853-5.6008zm0 21.973c-3.2452 0-5.3858 2.3416-5.3858 5.6008 0 3.1132 2.2859 5.3853 5.3858 5.3853h38.429c3.2156 0 5.3853-2.4331 5.3853-5.3853 0-3.2113-2.3773-5.6008-5.3853-5.6008z" stroke-width=".26459"/>
 <rect x="44.125" y="16.935" width="28.084" height="0" fill="#800000" stroke-width="12.303"/>
</svg>
