<?xml version="1.0" encoding="UTF-8"?>
<!-- Created with Inkscape (http://www.inkscape.org/) -->
<svg width="512" height="512" version="1.1" viewBox="0 0 135.47 135.47" xmlns="http://www.w3.org/2000/svg">
 <g transform="matrix(3.3867 0 0 3.3867 -131.56 -402.43)" style="shape-inside:url(#rect1090);white-space:pre" aria-label="">
  <path d="m51.268 123.83 5.0781-5h17.5q0.9375 0 1.7188 0.70312 0.78125 0.70313 0.78125 1.7969v27.5q0 1.0938-0.70312 1.7969-0.70312 0.70312-1.7969 0.70312h-2.5v-2.5h2.5v-27.5h-15v2.5zm-9.9219 10 7.5-7.5h17.5q1.0156 0 1.7188 0.70312 0.78125 0.70313 0.78125 1.7969v27.5q0 1.0938-0.70312 1.7969-0.70312 0.70312-1.7969 0.70312h-22.422q-1.0938 0-1.875-0.70312-0.70312-0.70313-0.70312-1.7969zm25 22.5v-27.5h-15v5q0 1.0938-0.78125 1.7969-0.70312 0.70312-1.7969 0.70312h-4.8438v20zm-16.25-12.5h10q1.25 0 1.25 1.25 0 0.46875-0.39062 0.85938-0.3125 0.39062-0.85938 0.39062h-10q-0.46875 0-0.85938-0.39062-0.39062-0.39063-0.39062-0.85938 0-0.54687 0.39062-0.85937 0.39062-0.39063 0.85938-0.39063zm-1.25 6.25q0-0.54687 0.39062-0.85937 0.39062-0.39063 0.85938-0.39063h10q1.25 0 1.25 1.25 0 0.46875-0.39062 0.85938-0.3125 0.39062-0.85938 0.39062h-10q-0.46875 0-0.85938-0.39062-0.39062-0.39063-0.39062-0.85938z"/>
 </g>
</svg>
