<?xml version="1.0" encoding="UTF-8"?>
<!-- Created with Inkscape (http://www.inkscape.org/) -->
<svg width="512" height="512" version="1.1" viewBox="0 0 135.47 135.47" xmlns="http://www.w3.org/2000/svg">
 <g transform="matrix(12.8 0 0 12.8 -790.11 -539.99)" stroke-width=".26458" aria-label="">
  <path d="m67.536 42.455q0-0.10335 0.08268-0.18604 0.10335-0.08268 0.2067-0.08268h4.1961q0.24805 0 0.24805 0.26872v4.2168q0 0.10335-0.08268 0.2067-0.06201 0.08268-0.16536 0.08268h-4.2168q-0.10335 0-0.18603-0.08268-0.08268-0.10335-0.08268-0.2067zm-5.7671 0q0-0.26872 0.26872-0.26872h4.1754q0.24805 0 0.24805 0.26872v4.2375q0 0.26872-0.24805 0.26872h-4.1754q-0.26872 0-0.26872-0.26872zm6.1185 4.0514q0 0.10335 0.12402 0.10335h3.8447q0.10335 0 0.10335-0.10335v-3.8447q0-0.12402-0.10335-0.12402h-3.8447q-0.12402 0-0.12402 0.12402zm-2.3358-2.6872v-0.5581h-2.8525v0.5581zm4.3615-0.53743q0.31006 0 0.49609 0.18603 0.18604 0.16536 0.18604 0.51676 0 0.31006-0.22738 0.47542-0.2067 0.14469-0.45475 0.14469-0.28939 0-0.49609-0.16536-0.18604-0.16536-0.18604-0.51676 0-0.33073 0.18604-0.47542 0.2067-0.16536 0.49609-0.16536zm-7.214 1.5916h2.8525v-0.57877h-2.8525zm6.0151 1.2402v-0.64078q0-0.26872 0.10335-0.41341 0.12402-0.16536 0.28939-0.24805 0.18604-0.08268 0.37207-0.10335 0.2067-0.02067 0.37207-0.02067h0.12402q0.43408 0 0.76481 0.14469 0.33073 0.14469 0.33073 0.64079v0.64078zm-6.0151-0.2067h2.8525v-0.57877h-2.8525zm5.1056 2.0877h4.2168q0.24805 0 0.24805 0.26872v4.2375q0 0.26872-0.24805 0.26872h-4.2168q-0.26872 0-0.26872-0.26872v-4.2375q0-0.26872 0.26872-0.26872zm-4.1961 4.1134v-3.6587h1.0129v3.6587zm5.4777-0.10335q0.04134 0.06201 0.22738 0.10335 0.22738 0 0.37207-0.18603l1.9637-2.7905-0.68213-0.47542-1.7157 2.4391-0.72347-0.5581-0.49609 0.66146zm-5.9944-2.7905v2.8939h-0.97151v-2.8939zm3.0592 1.3436v1.5503h-1.0129v-1.5503z"/>
 </g>
</svg>
