<?xml version="1.0" encoding="UTF-8"?>
<svg width="2e3" height="2e3" version="1.2" viewBox="0 0 2e3 2e3" xmlns="http://www.w3.org/2000/svg">
 <path d="m1e3 0c-553 0-1e3 447-1e3 1e3 0 553 447 1e3 1e3 1e3s1e3 -447 1e3 -1e3 -447-1e3 -1e3 -1e3zm-43.641 512.54-0.05274 0.00586c163.73 0 314.42 35.241 435.58 94.502l172.28-83.922 166.15 49.33-99.795 238.23c5.0375 8.335 9.844 16.745 14.158 25.305h-1376.7c94.73-187.94 366.71-323.45 688.38-323.45zm-711.93 383.45h1423.9c5.2358 18.313 8.7434 37.015 10.672 56h-1445.2c1.9286-18.985 5.4342-37.687 10.67-56zm-10.84 116h1445.5c-1.8124 19.013-5.5603 37.671-10.742 56h-1424c-5.1818-18.329-8.9296-36.987-10.742-56zm34.08 116h1377.4c-4.382 8.759-9.2756 17.362-14.414 25.885l97.709 233.26-166.15 49.33-165.97-80.852c-58.49 29.076-124 52.408-194.68 68.891-7.502 30.954-22.342 74.481-53.895 107.85-31.04 32.82-63.632 40.291-214.18 41.131-178.08 0.99-208.7-9.2209-234.39-41.131-29.284-36.37-38.479-85.431-41.488-121.94-184-54.1-326.92-156.4-389.97-282.42l0.0293-0.0039z" fill="#fff"/>
</svg>
