<?xml version="1.0" encoding="UTF-8"?>
<svg width="512" height="512" version="1.1" viewBox="-10 0 512 512" xmlns="http://www.w3.org/2000/svg">
 <path transform="translate(-10)" d="m137.02 0c-6.3288 0-11.392 1.5817-15.189 4.7461-8.2275 5.0631-12.34 12.659-12.34 22.785v132.47c5.1e-4 14.68 11.902 26.581 26.582 26.58 14.68-5.1e-4 26.58-11.901 26.58-26.58v-84.055l271.51 167.08-99.168 60.68c-11.809 7.2254-15.525 22.656-8.2988 34.465 7.2245 11.806 22.651 15.522 34.459 8.3008l2e-3 2e-3 137.56-84.461c8.8603-5.696 13.291-12.974 13.291-21.834s-4.4306-16.138-13.291-21.834l-349.35-214.55c-3.1644-2.5315-7.2787-3.7969-12.342-3.7969zm0.40821 230c-11.806 0-23.104 2.3343-33.709 6.9844-10.423 4.5698-19.723 10.727-27.75 18.398-8.1311 7.7704-14.439 17.027-18.797 27.545h2e-3c-0.63687 1.537-1.167 3.104-1.7031 4.668l-8.75-8.7422c-5.238-5.234-11.738-8.6063-18.703-8.8848h-2e-3c-7.1416-0.28544-13.985 2.9911-19.303 8.3047-5.3192 5.3142-8.5963 12.153-8.3105 19.289 0.27883 6.9594 3.6544 13.454 8.8926 18.688l37.881 37.844v13.053h-21.15c-7.4184-3e-5 -14.335 1.9685-19.191 6.8203-4.8568 4.8518-6.8301 11.763-6.8301 19.176 0 7.4125 1.9718 14.325 6.8281 19.178 4.8564 4.8524 11.774 6.8203 19.193 6.8203h21.4c0.12067 2.6525 0.26924 5.2946 0.60352 7.8633l-3.7422 3.7402-34.99 34.955c-5.2383 5.2333-8.6138 11.728-8.8926 18.688v2e-3c-0.28567 7.1355 2.9915 13.975 8.3105 19.289 5.3179 5.3138 12.161 8.5901 19.303 8.3047h2e-3c6.9651-0.27851 13.464-3.6537 18.701-8.8867l25.688-25.662c0.30088 0.313 0.55572 0.66536 0.86328 0.97266 8.0294 8.0226 17.565 14.374 28.605 19.053 11.04 4.6797 22.751 7.0195 35.129 7.0195 12.712 0 24.506-2.3398 35.379-7.0195 10.873-4.6798 20.324-11.03 28.354-19.053 0.30806-0.3078 0.56384-0.65758 0.86523-0.9707l25.686 25.66c5.2373 5.2332 11.736 8.6081 18.701 8.8867h2e-3c7.1416 0.28545 13.985-2.9911 19.303-8.3047 5.3192-5.3142 8.5963-12.155 8.3105-19.291-0.27884-6.9594-3.6544-13.452-8.8926-18.686l-38.633-38.596c0.32667-2.6047 0.46037-5.2786 0.5586-7.9648h21.344c7.4187 0 14.337-1.968 19.193-6.8203 4.8564-4.8523 6.828-11.765 6.828-19.178 0-7.4125-1.9715-14.324-6.8281-19.176-4.8566-4.8519-11.775-6.8203-19.193-6.8203h-21.15l-2e-3 -13.049 37.883-37.848c5.2382-5.2333 8.6138-11.728 8.8926-18.688v-2e-3c0.28566-7.1355-2.9915-13.973-8.3105-19.287-5.3179-5.3137-12.163-8.5902-19.305-8.3047-6.9651 0.27852-13.464 3.6517-18.701 8.8848l-8.7539 8.7461c-0.53644-1.5654-1.0677-3.1334-1.7051-4.6719-4.3336-10.46-10.45-19.676-18.266-27.441-7.7778-7.7296-16.981-13.919-27.43-18.5-13.064-5.4127-21.784-6.9863-33.707-6.9863zm-0.42383 42.826c1.3895 3.1e-4 2.7655 0.0672 4.123 0.19727 1.3576 0.12997 2.6983 0.32227 4.0176 0.57617 2.6386 0.50777 5.193 1.2578 7.6406 2.2266s4.7877 2.1554 6.9941 3.5391c2.2064 1.3836 4.2806 2.9644 6.1953 4.7168 1.9147 1.7524 3.6715 3.677 5.2441 5.752 1.5727 2.075 2.9604 4.3009 4.1406 6.6524 1.1802 2.3514 2.1532 4.8284 2.8906 7.4102 0.36869 1.2909 0.67726 2.6075 0.92579 3.9473 0.24852 1.3398 0.43457 2.703 0.55664 4.0859h-85.209c0.12152-1.377 0.3077-2.734 0.55469-4.0684 0.74097-4.003 2.0327-7.8001 3.791-11.316 1.1722-2.3442 2.551-4.5641 4.1133-6.6348 1.5622-2.0706 3.3084-3.9928 5.2109-5.7441 1.9026-1.7513 3.9611-3.3324 6.1543-4.7188s4.5209-2.5792 6.9551-3.5547c3.6513-1.4633 7.546-2.4374 11.6-2.8477 1.3512-0.13677 2.7181-0.21042 4.1016-0.21875zm-42.92 86.104h85.666l-0.0898 25.623c-0.11741 33.399-0.32798 36.043-0.50391 36.779-3.1471 13.178-10.381 22.996-20.477 28.768-8.5657 4.8968-19.228 6.9107-27.803 5.5879-12.38-1.9098-22.554-8.4732-29.828-19.484-3.0877-4.674-4.8578-8.8969-6.1953-15.021-0.32215-1.4751-0.33407-1.1101-0.44726-5.9707-0.1132-4.8606-0.15773-13.892-0.22461-31.225z" stroke-width=".94933"/>
</svg>
