<?xml version="1.0" encoding="UTF-8"?>
<!-- Created with Inkscape (http://www.inkscape.org/) -->
<svg width="512" height="512" version="1.1" viewBox="0 0 135.47 135.47" xmlns="http://www.w3.org/2000/svg">
 <path transform="scale(.26458)" d="m36.572 0c-9.9049 2.3685e-15 -18.668 3.8087-26.287 11.428-6.8573 6.8572-10.285 15.24-10.285 25.145v438.86c-2.3685e-15 10.667 3.4278 19.43 10.285 26.287 7.6189 6.8571 16.382 10.285 26.287 10.285h438.86c10.667 0 19.43-3.428 26.287-10.285 6.857-6.8572 10.285-15.62 10.285-26.287v-438.86c0-9.9047-3.4282-18.287-10.285-25.145-6.8573-7.619-15.62-11.428-26.287-11.428h-438.86zm79.389 115.65c5.4061 0 10.189 2.0797 14.348 6.2383l119.77 119.77c3.7427 3.7427 5.6133 8.5257 5.6133 14.348 0 5.4061-1.8706 9.98-5.6133 13.723l-119.14 120.39c-4.1585 4.1586-8.9416 6.2383-14.348 6.2383-5.4061 0-9.98-2.0797-13.723-6.2383-4.1585-3.7427-6.2383-8.3165-6.2383-13.723 0-5.4061 2.0797-10.189 6.2383-14.348l97.934-99.182c2.4951-2.4951 3.7422-4.9892 3.7422-7.4844 0-2.4951-1.2471-4.784-3.7422-6.8633l-99.182-98.557c-3.7427-3.7427-5.6133-8.3166-5.6133-13.723 0-5.822 1.8706-10.605 5.6133-14.348 4.1585-4.1585 8.9415-6.2383 14.348-6.2383zm140.35 239.53h139.73c5.822 0 10.605 1.8706 14.348 5.6133 3.7427 3.7427 5.6133 8.5257 5.6133 14.348 0 5.4061-1.8706 10.189-5.6133 14.348-3.7427 3.7427-8.5257 5.6133-14.348 5.6133h-139.73c-5.4061 0-10.189-1.8706-14.348-5.6133-3.7427-4.1586-5.6133-8.9415-5.6133-14.348 0-5.822 1.8706-10.605 5.6133-14.348 4.1586-3.7427 8.9416-5.6133 14.348-5.6133z" stroke-width="14.629"/>
</svg>
