<?xml version="1.0" encoding="UTF-8"?>
<!-- Created with Inkscape (http://www.inkscape.org/) -->
<svg width="512" height="512" version="1.1" viewBox="0 0 135.47 135.47" xmlns="http://www.w3.org/2000/svg">
 <path d="m112.65-2.022e-6q9.8572 0 16.335 6.4776 6.4776 6.4776 6.4776 16.335v90.123q0 9.5756-6.4776 16.053-6.4776 6.4776-16.335 6.4776h-90.123q-9.5756 0-16.053-6.4776-6.4776-6.4776-6.4776-16.053v-90.123q0-9.8572 6.4776-16.335 6.4776-6.4776 16.053-6.4776zm7.6042 22.812q0-3.3796-2.2531-5.3511-1.9714-2.2531-5.3511-2.2531h-90.123q-3.3796 0-5.6327 2.2531-1.9714 1.9714-1.9714 5.3511v90.123q0 3.3796 1.9714 5.6327 2.2531 1.9714 5.6327 1.9714h90.123q3.3796 0 5.3511-1.9714 2.2531-2.2531 2.2531-5.6327z" stroke-width="3.605"/>
 <path d="m91.959 25.4c-1.1024 0-2.0946 0.44097-2.9766 1.3229l-21.277 21.562-19.206-19.206c-2.3909-2.3909-5.2766-3.545-8.6568-3.4626h-9.17e-4 -9.2e-4c-0.41127 5.7e-5 -0.81551 0.0188-1.2127 0.05604-0.0012 1.16e-4 -0.0024 3.43e-4 -0.0037 4.59e-4 -0.39615 0.03726-0.78509 0.09293-1.1672 0.1672-0.0023 4.48e-4 -0.0046 9.3e-4 -0.0069 0.0014-0.38104 0.0743-0.75511 0.16725-1.1222 0.27836-0.0032 9.7e-4 -0.0064 0.0018-0.0096 0.0028-0.36574 0.11107-0.72484 0.24051-1.0767 0.38815-0.0042 0.0018-0.0082 0.0038-0.0124 0.0055-0.34848 0.14672-0.68994 0.31118-1.0248 0.4938-0.0047 0.0026-0.0095 0.0048-0.01424 0.0073-0.0026 0.0014-0.0052 0.0032-0.0078 0.0046-0.34178 0.18737-0.67657 0.39344-1.0041 0.61828-0.32041 0.21993-0.63393 0.45758-0.94074 0.71336-3.37e-4 2.79e-4 -5.86e-4 6.4e-4 -9.2e-4 9.19e-4 -0.0066 0.0055-0.01317 0.01103-0.01975 0.01654-4.91e-4 4.1e-4 -8.89e-4 9.68e-4 -0.0014 0.0014-0.30516 0.25555-0.60358 0.52884-0.89526 0.81993-0.0035 0.0035-0.0071 0.0066-0.01057 0.01011l-1.1975 1.1975-0.60036 0.59991-0.18741 0.18787c-0.0038 0.0038-0.0072 0.0077-0.01102 0.01148-1.56e-4 1.55e-4 -3.04e-4 3.03e-4 -4.6e-4 4.58e-4 -0.30103 0.30167-0.58367 0.60936-0.84795 0.92329-0.54904 0.65219-1.0189 1.3307-1.4093 2.0358-6.69e-4 0.0012-0.0012 0.0025-0.0018 0.0037-0.18656 0.3372-0.35499 0.68056-0.50528 1.0299-0.0043 0.01-0.0086 0.01989-0.01286 0.02986-0.30371 0.71144-0.53228 1.448-0.6858 2.2095-0.07786 0.38619-0.13624 0.77871-0.17547 1.1778-0.0012 0.0124-0.0025 0.0248-0.0037 0.03721-0.03743 0.39318-0.05696 0.79279-0.05696 1.1984 0 0.81745 0.07448 1.6067 0.2214 2.3684 5.7e-5 2.94e-4 -5.7e-5 6.23e-4 0 9.2e-4 0.0023 0.01194 0.0046 0.0239 0.0069 0.03583 1.81e-4 9.17e-4 2.8e-4 0.0018 4.6e-4 0.0028 0.0729 0.37104 0.16363 0.73547 0.27147 1.0932 0.11101 0.36827 0.24057 0.72938 0.38861 1.0836 6e-3 0.01425 0.0119 0.02849 0.01791 0.04272 0.14506 0.34309 0.30746 0.67931 0.48737 1.0092 0.0051 0.0094 0.01 0.01905 0.01516 0.02848 9.53e-4 0.0017 0.0023 0.0033 0.0032 0.0051 0.18142 0.33004 0.3803 0.65382 0.59669 0.9706 0.44758 0.6552 0.96963 1.2816 1.5668 1.8801 0.0037 0.0037 0.0069 0.0078 0.01056 0.01148l19.335 19.335-21.399 21.684c-0.88194 0.88194-1.3229 1.8741-1.3229 2.9766v13.229c0 1.3229 0.38585 2.3702 1.1576 3.1419 0.88194 0.88195 1.9844 1.3229 3.3073 1.3229h13.229c0.66146 0 1.2127-0.11024 1.6536-0.33073 0.44097-0.22049 0.93706-0.55122 1.4883-0.99219l21.288-21.63 16.626 16.625 0.83555 0.83601 0.38126 0.38126 0.06614 0.0662 1.2416 1.2416c0.0035 3e-3 0.0071 7e-3 0.01056 0.0101 0.29169 0.2911 0.5901 0.56436 0.89526 0.81993 4.9e-4 4.1e-4 8.89e-4 9.7e-4 0.0014 1e-3 0.0066 6e-3 0.01317 0.011 0.01975 0.0165 3.34e-4 2.8e-4 5.83e-4 6.4e-4 9.17e-4 9.2e-4 0.30612 0.25523 0.61925 0.49245 0.9389 0.71199 6.23e-4 4.3e-4 0.0012 9.5e-4 0.0018 1e-3 6e-3 4e-3 0.01193 8e-3 0.01791 0.0124 0.0014 9.4e-4 0.0028 2e-3 0.0041 3e-3 0.32055 0.21903 0.64795 0.4199 0.98208 0.60312 0.0051 3e-3 0.01005 6e-3 0.01516 9e-3 0.0013 7.3e-4 0.0028 1e-3 0.0041 2e-3 0.33451 0.1826 0.67578 0.3475 1.0239 0.49426 0.0011 4.5e-4 0.0021 9.3e-4 0.0032 1e-3 0.0043 2e-3 0.0086 4e-3 0.01286 6e-3 0.0017 6.9e-4 0.0034 1e-3 0.0051 2e-3 0.3504 0.14688 0.7075 0.27568 1.0717 0.38631 0.0034 1e-3 0.0067 2e-3 0.01011 3e-3 0.0013 4.1e-4 0.0028 5.1e-4 0.0041 9.2e-4 0.36575 0.11058 0.73844 0.20295 1.118 0.27699 0.0023 4.5e-4 0.0046 9.3e-4 0.0069 1e-3 0.38211 0.0743 0.77105 0.12994 1.1672 0.16721 0.0012 1.1e-4 0.0024 3.4e-4 0.0037 4.6e-4 0.39732 0.0373 0.8017 0.056 1.2131 0.056h9.2e-4c3.2819 0.0801 6.1352-1.0484 8.5622-3.3776l5e-3 5e-3 0.21359-0.2136 0.78824-0.78824 1.1971-1.197c0.29563-0.29563 0.57222-0.59922 0.83004-0.90997 1.8273-2.2024 2.7052-4.7841 2.633-7.7464 0.0824-3.3802-1.0721-6.2664-3.463-8.6573l-1.2415-1.2413-1.2834-1.2834-16.779-16.78 21.248-21.59c0.88194-0.88194 1.3229-1.8741 1.3229-2.9766 0-1.3229-0.44098-2.3702-1.3229-3.1419l-13.229-13.229c-0.88194-0.88194-1.9293-1.3229-3.1419-1.3229zm-52.117 8.0684c0.94805-5.4e-5 1.8962 0.47372 2.8443 1.4217l4.59e-4 4.61e-4 4.61e-4 4.59e-4 2.8438 2.8443-1.9407 1.9407-0.11989 0.11943 0.0018 0.0018c-0.83165 0.87367-1.2878 1.8228-1.3666 2.847 0.08249 1.0718 0.57725 2.0609 1.4841 2.9678 0.90691 0.9069 1.8549 1.3606 2.8443 1.3606 1.0242-0.07875 1.9729-0.53488 2.8466-1.3666l0.0018 0.0014 0.11989-0.11943 1.9407-1.9407 5.6885 5.6885-1.4139 1.4139-0.52687 0.52687-0.11943 0.11989 0.0014 0.0018c-0.83165 0.87366-1.2873 1.8224-1.3661 2.8466 0.0824 1.0718 0.57679 2.0609 1.4837 2.9678 0.9069 0.90689 1.8554 1.3606 2.8447 1.3606 1.0242-0.07875 1.9729-0.53486 2.8466-1.3666l0.0018 0.0018 0.11943-0.11989 1.9407-1.9407 5.689 5.6885-1.9412 1.9412-0.11943 0.11943 0.0018 0.0018c-0.83167 0.87365-1.2878 1.8228-1.3666 2.847 0.08249 1.0718 0.57726 2.0605 1.4841 2.9674 0.82446 0.82445 1.7309 1.237 2.7202 1.237 1.103 1e-5 2.093-0.41527 2.9701-1.2434l0.0028 0.0028 2.0606-2.0606 5.6885 5.6885-1.9412 1.9412-0.11943 0.11943 0.0018 0.0023c-0.83166 0.87365-1.2878 1.8224-1.3666 2.8466 0.0824 1.0718 0.53613 2.0198 1.3606 2.8443 0.90689 0.9069 1.8549 1.3606 2.8443 1.3606 1.103 7e-6 2.093-0.41527 2.9701-1.2434l0.0023 0.0028 0.11989-0.11989 1.9407-1.9407 1.9839 1.9839 3.7051 3.7046-1.4143 1.4139-0.52687 0.52733-0.11943 0.11943 0.0018 0.0018c-0.83167 0.87366-1.2878 1.8228-1.3666 2.847 0.0824 1.0718 0.53567 2.0194 1.3601 2.8438 0.90689 0.90689 1.8549 1.3606 2.8443 1.3606 1.103 1.1e-5 2.093-0.41481 2.9701-1.243l0.0028 0.0023 2.0606-2.0606 0.7005 0.70096 1.2834 1.283 1.2416 1.2421c1.8963 1.8963 1.8962 3.7923 0 5.6885l-1.9853 1.9853c-0.9069 0.90689-1.8961 1.4017-2.9678 1.4842-0.98934 0-1.9378-0.45369-2.8447-1.3606l-0.7895-0.78955-0.452-0.452-0.06569-0.06614-0.38172-0.38126-56.198-56.198c-0.90689-0.9069-1.3606-1.8549-1.3606-2.8443 0.08249-1.0718 0.57726-2.0614 1.4841-2.9683l0.18787-0.18787 0.60037-0.5999 1.1971-1.1975c0.94807-0.94807 1.8962-1.4221 2.8443-1.4221zm52.117 2.5149 7.1107 7.1107-7.1107 6.9453-6.9453-6.9453zm-13.229 13.229 7.1107 7.1107-4.9995 5.0969-7.1107-7.1102zm-24.112 24.583 7.1107 7.1107-18.222 18.577-7.1107-7.1107z" stroke-width="2.2386"/>
</svg>
