<svg version="1.2" baseProfile="tiny-ps" xmlns="http://www.w3.org/2000/svg" viewBox="0 0 2000 2000" width="2000" height="2000">
	<title>dirigible-logo-white-2Kx2K-svg</title>
	<style>
		tspan { white-space:pre }
		.shp0 { fill: #fecc04 } 
		.shp1 { fill: #000000 } 
	</style>
	<g id="Layer_2">
		<path id="Layer" class="shp0" d="M1000 2000C447 2000 0 1553 0 1000C0 447 447 0 1000 0C1553 0 2000 447 2000 1000C2000 1553 1553 2000 1000 2000Z" />
	</g>
	<g id="Layer_1">
		<path id="Layer" class="shp1" d="M956.31 1452.37C555.76 1452.37 231.98 1242.32 231.98 982.46C231.98 722.6 555.76 512.55 956.31 512.55C1356.86 512.55 1680.64 722.6 1680.64 982.46C1680.64 1242.32 1356.86 1452.37 956.31 1452.37Z" />
		<path id="Layer" class="shp1" d="M656.94 1402.86C659.3 1439.88 667.74 1493.47 699.05 1532.36C724.74 1564.27 755.36 1574.48 933.44 1573.49C1083.99 1572.65 1116.58 1565.18 1147.62 1532.36C1181.15 1496.9 1195.92 1449.78 1202.94 1418.68" />
		<path id="Layer" class="shp1" d="M1361.66 621.78L1564.17 523.13L1730.32 572.46L1615.54 846.47" />
		<path id="Layer copy" class="shp1" d="M1359.66 1337.82L1562.17 1436.47L1728.32 1387.14L1613.54 1113.13" />
		<path id="Shape 1" class="shp0" d="M603 1125C533.88 1125 478 1069.13 478 1000C478 930.88 533.88 875 603 875C672.13 875 728 930.88 728 1000C728 1069.13 672.13 1125 603 1125Z" />
		<path id="Shape 1 copy" class="shp0" d="M950 1125C880.88 1125 825 1069.13 825 1000C825 930.88 880.88 875 950 875C1019.13 875 1075 930.88 1075 1000C1075 1069.13 1019.13 1125 950 1125Z" />
		<path id="Shape 1 copy 2" class="shp0" d="M1287 1125C1217.88 1125 1162 1069.13 1162 1000C1162 930.88 1217.88 875 1287 875C1356.13 875 1412 930.88 1412 1000C1412 1069.13 1356.13 1125 1287 1125Z" />
	</g>
</svg>