<svg version="1.2" baseProfile="tiny-ps" xmlns="http://www.w3.org/2000/svg" viewBox="0 0 2000 2000" width="2000" height="2000">
	<title>dirigible-logo-2Kx2K-final</title>
	<style>
		tspan { white-space:pre }
		.shp0 { fill: #fecc04 } 
		.shp1 { fill: #000000 } 
	</style>
	<path id="Shape 6" class="shp0" d="M0 0L2000 0L2000 2000L0 2000L0 0Z" />
	<g id="Layer_1">
		<path id="Layer" class="shp1" d="M956.31 1452.37C555.76 1452.37 231.98 1242.32 231.98 982.46C231.98 722.6 555.76 512.55 956.31 512.55C1356.86 512.55 1680.64 722.6 1680.64 982.46C1680.64 1242.32 1356.86 1452.37 956.31 1452.37Z" />
		<path id="Layer" class="shp1" d="M656.94 1402.86C659.3 1439.88 667.74 1493.47 699.05 1532.36C724.74 1564.27 755.36 1574.48 933.44 1573.49C1083.99 1572.65 1116.58 1565.18 1147.62 1532.36C1181.15 1496.9 1195.92 1449.78 1202.94 1418.68" />
		<path id="Layer" class="shp1" d="M1361.66 621.78L1564.17 523.13L1730.32 572.46L1615.54 846.47" />
		<path id="Layer copy" class="shp1" d="M1359.66 1337.82L1562.17 1436.47L1728.32 1387.14L1613.54 1113.13" />
		<path id="Shape 5" class="shp0" d="M581 1099C514.64 1099 461 1045.36 461 979C461 912.64 514.64 859 581 859C647.36 859 701 912.64 701 979C701 1045.36 647.36 1099 581 1099Z" />
		<path id="Shape 5 copy" class="shp0" d="M945 1099C878.64 1099 825 1045.36 825 979C825 912.64 878.64 859 945 859C1011.36 859 1065 912.64 1065 979C1065 1045.36 1011.36 1099 945 1099Z" />
		<path id="Shape 5 copy 2" class="shp0" d="M1308 1099C1241.64 1099 1188 1045.36 1188 979C1188 912.64 1241.64 859 1308 859C1374.36 859 1428 912.64 1428 979C1428 1045.36 1374.36 1099 1308 1099Z" />
	</g>
</svg>