<?xml version="1.0" encoding="UTF-8"?>
<svg width="512" height="512" version="1.1" viewBox="0 0 135.47 135.47" xmlns="http://www.w3.org/2000/svg">
 <path transform="scale(.26459)" d="m255.48 0v0.0019531c-7.7097 0-13.843 2.4531-18.398 7.3594-4.5558 4.9062-6.834 11.214-6.834 18.924 0 7.7098 2.2782 13.843 6.834 18.398 4.5558 4.5558 10.69 6.834 18.398 6.834 28.036 0 54.491 5.4311 79.373 16.295 24.882 10.864 46.61 25.583 65.184 44.156 18.574 18.574 33.292 40.302 44.156 65.184s16.295 51.339 16.295 79.375-5.4311 54.495-16.295 79.377c-10.864 24.882-25.583 46.431-44.156 64.654-18.574 18.223-40.302 32.767-65.184 43.631-24.882 10.864-51.337 16.295-79.373 16.295s-54.495-5.4311-79.377-16.295c-17.41-7.6015-33.184-17.012-47.334-28.217h8.8945l23.998-1c9.3332 0 17-3 23-9 5.9998-5.9999 9.002-13.667 9.002-23 0-9.3329-3.002-16.834-9.002-22.5-5.9998-5.6665-13.667-8.5-23-8.5h-96.998c-9.3328 0-17.002 2.9986-23.002 8.998-5.9998 5.9999-8.6647 13.667-7.998 23v96.002c0 9.3329 2.8311 17 8.498 23 5.6665 5.9998 13.169 8.998 22.502 8.998 9.3328 0 16.998-2.9986 22.998-8.998 5.9999-5.9999 9-13.667 9-23l0.88672-20.381v-1.9648c17.625 13.782 37.151 25.249 58.58 34.398 31.19 13.317 64.307 19.975 99.352 19.975 35.044 0 68.162-6.6574 99.352-19.975 31.19-13.317 58.347-31.541 81.477-54.67 23.129-23.129 41.526-50.289 55.193-81.479 13.667-31.19 20.502-64.307 20.502-99.352s-6.8347-68.162-20.502-99.352c-13.667-31.19-32.065-58.349-55.193-81.479-23.129-23.129-50.287-41.526-81.477-55.193-31.19-13.667-64.307-20.502-99.352-20.502zm-95.855 20.717a26.75 26.75 0 0 0-26.75 26.75 26.75 26.75 0 0 0 26.75 26.75 26.75 26.75 0 0 0 26.75-26.75 26.75 26.75 0 0 0-26.75-26.75zm94.631 78.125-0.00195 0.001953c-17.384 0-26.074 8.6925-26.074 26.076v128.37c0 6.6862 2.6743 12.703 8.0234 18.053l77.225 78.229c5.349 5.349 11.368 8.0234 18.055 8.0234 6.6869 0 12.706-2.6743 18.055-8.0234 5.349-5.349 8.0234-11.368 8.0234-18.055 0-6.6861-2.6744-12.703-8.0234-18.053l-70.201-70.203v-118.34c0-17.384-8.3593-26.074-25.074-26.074l-0.0039-0.001953-0.00196-0.001953zm-197.17 15.629a26.75 26.75 0 0 0-26.75 26.75 26.75 26.75 0 0 0 26.75 26.75 26.75 26.75 0 0 0 26.75-26.75 26.75 26.75 0 0 0-26.75-26.75zm-30.334 135.52a26.75 26.75 0 0 0-26.75 26.75 26.75 26.75 0 0 0 26.75 26.75 26.75 26.75 0 0 0 26.75-26.75 26.75 26.75 0 0 0-26.75-26.75z" stroke-width=".99999"/>
</svg>
