<?xml version="1.0" encoding="iso-8859-1"?>
<!-- Generator: Adobe Illustrator 16.0.0, SVG Export Plug-In . SVG Version: 6.00 Build 0)  -->
<!DOCTYPE svg PUBLIC "-//W3C//DTD SVG 1.1//EN" "http://www.w3.org/Graphics/SVG/1.1/DTD/svg11.dtd">
<svg version="1.1" id="Capa_1" xmlns="http://www.w3.org/2000/svg" xmlns:xlink="http://www.w3.org/1999/xlink" x="0px" y="0px"
	 width="342.784px" height="342.785px" viewBox="0 0 342.784 342.785" style="enable-background:new 0 0 342.784 342.785;"
	 xml:space="preserve">
<g>
	<g>
		<path d="M339.352,76.725c-2.858-2.71-6.945-3.693-10.72-2.574l-18.829,5.576l-2.28-3.22c-4.23-5.973-8.86-11.674-13.759-16.945
			c-27.173-29.234-63.899-47.75-103.412-52.14c-6.141-0.685-12.382-1.03-18.546-1.03c-34.488,0-67.585,10.455-95.71,30.234
			c-30.601,21.524-53.3,53.042-63.921,88.75c-0.851,2.868-0.502,5.958,0.968,8.564c1.473,2.604,3.94,4.5,6.838,5.248l21.353,5.528
			c5.712,1.479,11.59-1.812,13.308-7.465c7.888-25.945,24.515-48.874,46.819-64.563c20.656-14.527,44.986-22.207,70.355-22.207
			c4.55,0,9.15,0.255,13.67,0.759c27.448,3.048,53.362,15.551,72.974,35.205l6.53,6.551l-12.898,3.82
			c-3.775,1.118-6.669,4.165-7.586,7.995c-0.921,3.828,0.271,7.857,3.13,10.568l57.893,54.947c2.078,1.97,4.803,3.027,7.59,3.027
			c1.044,0,2.099-0.148,3.128-0.453c3.775-1.119,6.669-4.166,7.588-7.993l18.648-77.613
			C343.397,83.464,342.205,79.435,339.352,76.725z"/>
		<path d="M322.806,203.596l-21.354-5.528c-5.719-1.48-11.592,1.812-13.309,7.465c-7.887,25.945-24.514,48.875-46.818,64.563
			c-20.655,14.526-44.985,22.207-70.354,22.207c-4.55,0-9.15-0.255-13.671-0.759c-27.448-3.049-53.362-15.551-72.974-35.205
			l-6.53-6.551l12.899-3.82c3.775-1.118,6.668-4.165,7.586-7.995c0.921-3.829-0.271-7.856-3.13-10.567l-57.893-54.947
			c-2.856-2.71-6.944-3.693-10.718-2.574c-3.775,1.119-6.668,4.166-7.587,7.992L0.304,255.49c-0.918,3.83,0.275,7.859,3.129,10.57
			c2.856,2.71,6.944,3.691,10.72,2.574l18.829-5.576l2.28,3.221c4.23,5.973,8.86,11.674,13.759,16.944
			c27.173,29.233,63.899,47.75,103.412,52.14c6.14,0.684,12.382,1.029,18.547,1.029c34.488,0,67.584-10.455,95.709-30.234
			c30.602-21.523,53.3-53.041,63.921-88.75c0.852-2.867,0.502-5.957-0.968-8.563C328.171,206.24,325.703,204.345,322.806,203.596z"
			/>
		<path d="M171.357,195.09c8.542,0,15.462-6.921,15.462-15.448v-79.325c0-8.527-6.921-15.448-15.462-15.448
			c-8.539,0-15.46,6.921-15.46,15.448v63.864h-40.172c-8.521,0-15.443,6.922-15.443,15.461c0,8.525,6.922,15.448,15.443,15.448
			H171.357z"/>
	</g>
</g>
<g>
</g>
<g>
</g>
<g>
</g>
<g>
</g>
<g>
</g>
<g>
</g>
<g>
</g>
<g>
</g>
<g>
</g>
<g>
</g>
<g>
</g>
<g>
</g>
<g>
</g>
<g>
</g>
<g>
</g>
</svg>
