<?xml version="1.0" encoding="UTF-8"?>
<!-- Created with Inkscape (http://www.inkscape.org/) -->
<svg width="512" height="512" version="1.1" viewBox="0 0 135.47 135.47" xmlns="http://www.w3.org/2000/svg">
 <path d="m53.719 1.7714e-4c-0.08293-6.4648e-4 -0.16564 5.1068e-4 -0.24856 0.0025838-0.44227 0.011057-0.88426 0.060374-1.3265 0.14883-3.715 0.70763-7.4305 1.8578-11.146 3.4499-3.715 1.5922-7.0762 3.4499-10.084 5.5728-1.7691 0.88454-2.7861 2.2554-3.0515 4.1129-0.26537 1.8575 0.1328 3.6709 1.1942 5.44 0.88453 1.5922 2.2554 2.5649 4.1129 2.9187 1.8575 0.35381 3.6709 6e-6 5.44-1.0614 5.1303-3.0074 10.791-5.2184 16.983-6.6337 1.7691-0.35381 3.2286-1.4596 4.3785-3.3171 1.1499-1.8575 1.5481-3.494 1.1942-4.9093-0.70762-2.2998-1.9459-3.8919-3.715-4.7764-1.2439-0.62194-2.4882-0.93805-3.7321-0.94774zm27.092 0.010852c-1.3102-0.016585-2.5956 0.33996-3.8561 1.0697-1.6806 0.97299-2.6977 2.5208-3.0515 4.6436-0.35381 1.946-5e-6 3.715 1.0614 5.3072 1.0614 1.5922 2.5654 2.5654 4.5114 2.9192 6.1918 1.2383 11.897 3.5381 17.116 6.8993 5.2188 3.3612 9.6857 7.3856 13.401 12.074 3.715 4.688 6.6337 9.9513 8.7566 15.789 2.1229 5.8379 3.1843 11.941 3.1843 18.31 0 6.5456-1.1058 12.737-3.3171 18.575-2.2113 5.8379-5.2187 11.101-9.0222 15.789-3.8035 4.688-8.2704 8.6686-13.401 11.941-3.623 2.3113-7.4711 4.1497-11.535 5.5345-1.3404 0.43038-2.696 0.80676-4.069 1.1234-6.083 1.4031-12.13 1.8246-18.141 1.265-6.0109-0.55955-11.802-2.0635-17.373-4.5124-4.0112-1.7633-7.7451-3.9923-11.21-6.6719h2.5554l6.35-0.26458c2.4695 0 4.4979-0.79375 6.0854-2.3812s2.3812-3.616 2.3812-6.0854c0-2.4694-0.79375-4.4538-2.3812-5.9531-1.5875-1.4993-3.616-2.249-6.0854-2.249h-25.665c-2.4694 0-4.4979 0.79375-6.0854 2.3812-1.5875 1.5875-2.2931 3.616-2.1167 6.0854v25.4c0 2.4694 0.74965 4.4979 2.249 6.0854 1.4993 1.5875 3.4837 2.3812 5.9531 2.3812 2.4694 0 4.4979-0.79375 6.0854-2.3812s2.3812-3.616 2.3812-6.0854l0.23461-5.3924c4.1603 3.174 8.5863 5.8105 13.28 7.9049 6.9697 3.1102 14.245 5.0055 21.826 5.6865s15.198 0.0617 22.851-1.8578c7.6527-1.9195 14.863-5.1385 21.63-9.6578 6.7675-4.5192 12.467-9.9212 17.099-16.205 0.81968-1.1121 1.5994-2.2395 2.343-3.3807 2.6795-4.2466 4.8988-8.8191 6.6502-13.723 2.6536-7.4301 3.9806-15.214 3.9806-23.352 0-8.1377-1.327-15.878-3.9806-23.219-2.6536-7.3416-6.3686-13.931-11.145-19.769-4.7765-5.8379-10.393-10.836-16.85-14.993-6.4571-4.1573-13.578-7.1208-21.361-8.8899-0.44227-0.088454-0.88204-0.13503-1.3188-0.14056zm-13.542 26.146c-4.5996 0-6.8993 2.2997-6.8993 6.8993v33.966c0 1.7691 0.7076 3.3612 2.1229 4.7764l20.433 20.698c1.4153 1.4153 3.0074 2.1229 4.7765 2.1229 1.7691 0 3.3612-0.70761 4.7765-2.1229 1.4153-1.4153 2.1229-3.0074 2.1229-4.7764 0-1.7691-0.70762-3.3612-2.1229-4.7764l-18.575-18.575v-31.313c0-4.5996-2.2115-6.8993-6.6342-6.8993zm-52.541 0.92862c-0.44227 0-0.88427 0.04436-1.3265 0.13281-1.7691 0.35382-3.1843 1.3265-4.2457 2.9187-1.946 3.5381-3.715 7.0323-5.3072 10.482-1.5922 3.4497-2.8305 7.0321-3.715 10.747-0.35382 1.7691-1.282e-5 3.4937 1.0614 5.1744 1.0614 1.6806 2.5649 2.6977 4.5108 3.0515 1.7691 0.35381 3.4943 0.04437 5.1749-0.92862 1.6806-0.97298 2.6977-2.5208 3.0515-4.6436 0.70763-3.0074 1.6808-5.8822 2.9192-8.6243 1.2383-2.7421 2.5649-5.5281 3.9801-8.3587 0.88453-1.4153 1.194-3.0079 0.92862-4.777-0.26537-1.7691-1.2824-3.0956-3.0515-3.9801-1.3268-0.79608-2.6538-1.1942-3.9806-1.1942zm-7.7132 40.297c-0.19363 5.5e-4 -0.3885 0.01017-0.58498 0.02842-1.7964 0.16712-3.3535 1.0263-4.6726 2.5776-1.3191 1.5513-1.8952 3.225-1.7281 5.0214 0.33898 2.6107 0.82778 5.2367 1.4593 7.8781h-5.168e-4l0.00568 0.02274c0.45139 1.9736 1.459 3.3664 3.0293 4.1703 1.5908 0.8144 3.3927 0.9995 5.4054 0.55604 1.9565-0.27573 3.3557-1.252 4.1977-2.9285 0.84204-1.6766 1.1255-3.4944 0.85059-5.4529-0.1407-0.71278-0.26961-1.4311-0.39429-2.1518l5.16e-4 -5.19e-4c-0.21768-1.0797-0.41117-2.1725-0.55345-3.2918-0.16715-1.7963-1.0263-3.354-2.5776-4.6731-1.1635-0.98933-2.3961-1.5603-3.6974-1.7136-0.054203-0.0065-0.10831-0.01213-0.16278-0.01705-0.19064-0.01725-0.38307-0.02587-0.57671-0.02532z" stroke-width=".26536"/>
</svg>
