<?xml version="1.0" encoding="UTF-8"?>
<svg width="512" height="512" version="1.1" viewBox="-10 0 512 512" xmlns="http://www.w3.org/2000/svg">
 <g transform="matrix(.99928 0 0 .99928 63.668 .36692)">
  <path d="m58.135-0.36719c-19.371 0-35.57 6.3457-48.596 19.037-13.025 12.691-19.539 28.723-19.539 48.094 0 13.359 3.6738 25.717 11.021 37.072 2.4807 3.8338 5.2735 7.3163 8.3633 10.465 0.19856 0.20565 0.40206 0.4063 0.60352 0.60938 0.20307 0.20145 0.40372 0.40494 0.60938 0.60351 3.1485 3.0898 6.6311 5.8826 10.465 8.3633 3.2535 2.1052 6.5996 3.873 10.018 5.375v252.4c-7.9477 3.1721-15.131 7.873-21.541 14.119-13.025 12.691-19.539 28.723-19.539 48.094 0 13.359 3.6738 25.717 11.021 37.072 2.4807 3.8338 5.2735 7.3163 8.3633 10.465 0.19856 0.20565 0.40206 0.4063 0.60352 0.60938 0.20307 0.20145 0.40372 0.40494 0.60938 0.60351 3.1485 3.0898 6.6311 5.8826 10.465 8.3633 11.356 7.3477 23.713 11.021 37.072 11.021 19.371 0 35.402-6.5136 48.094-19.539 12.691-13.025 19.037-28.889 19.037-47.592 0-0.21177-0.0122-0.41791-0.0137-0.62891 6.5e-4 -0.12601 0.0137-0.24881 0.0137-0.375 0-19.006-6.2867-34.789-18.826-47.365-0.0721-0.0747-0.13838-0.1521-0.21093-0.22656-0.0832-0.0854-0.17038-0.16318-0.25391-0.24805-0.0849-0.0835-0.16262-0.17067-0.24805-0.25391-0.0769-0.0749-0.15731-0.14234-0.23437-0.21679-6.2953-6.2754-13.402-10.968-21.307-14.105v-251.25c8.2159-3.2552 15.566-8.1968 22.043-14.844 12.691-13.025 19.037-28.889 19.037-47.592 0-0.21176-0.0122-0.4179-0.0137-0.62891 6.5e-4 -0.12601 0.0137-0.24881 0.0137-0.375 0-19.006-6.2867-34.789-18.826-47.365-0.0721-0.07467-0.13838-0.1521-0.21093-0.22656-0.0832-0.08543-0.17038-0.16318-0.25391-0.24805-0.0849-0.08353-0.16262-0.17066-0.24805-0.25391-0.0769-0.07489-0.15731-0.14235-0.23437-0.2168-11.801-11.763-26.423-18.022-43.885-18.746-1.1468-0.04957-2.3037-0.074219-3.4726-0.074219zm-0.50196 41.08a26.552 26.552 0 0 1 26.553 26.553 26.552 26.552 0 0 1-26.553 26.553 26.552 26.552 0 0 1-26.553-26.553 26.552 26.552 0 0 1 26.553-26.553zm0 377.1a26.552 26.552 0 0 1 26.553 26.553 26.552 26.552 0 0 1-26.553 26.553 26.552 26.552 0 0 1-26.553-26.553 26.552 26.552 0 0 1 26.553-26.553z" stroke-width="1.002"/>
  <path d="m307.79 0c-19.371 0-35.57 6.3457-48.596 19.037-13.025 12.691-19.539 28.723-19.539 48.094 0 13.359 3.6738 25.717 11.021 37.072 2.4807 3.8338 5.2735 7.3163 8.3633 10.465 0.19856 0.20565 0.40207 0.40629 0.60352 0.60937 0.20307 0.20145 0.40372 0.40495 0.60937 0.60352 3.1485 3.0898 6.6311 5.8826 10.465 8.3633 11.356 7.3477 23.713 11.021 37.072 11.021 19.371 0 35.402-6.5136 48.094-19.539 12.691-13.025 19.037-28.889 19.037-47.592 0-0.21177-0.0122-0.41791-0.0137-0.62891 6.5e-4 -0.12601 0.0137-0.24881 0.0137-0.375 0-19.006-6.2867-34.789-18.826-47.365-0.0721-0.0747-0.13839-0.15211-0.21094-0.22657-0.0832-0.0854-0.17038-0.16317-0.25391-0.24804-0.0849-0.0835-0.16261-0.17067-0.24804-0.25391-0.0769-0.0749-0.15732-0.14235-0.23438-0.2168-11.801-11.763-26.423-18.022-43.885-18.746-1.1468-0.0496-2.3037-0.0742-3.4727-0.0742zm-0.50195 41.08a26.552 26.552 0 0 1 26.553 26.553 26.552 26.552 0 0 1-26.553 26.553 26.552 26.552 0 0 1-26.553-26.553 26.552 26.552 0 0 1 26.553-26.553z" stroke-width="1.002"/>
  <path transform="translate(-10)" d="m291.03 114.63c-1.1495 9.0887-3.7311 17.588-7.7949 25.477-5.6667 11-13.833 20.167-24.5 27.5l-159.55 106.25c-6 4.6667-11.667 9.3333-17 14-5.3334 4.6667-9.6667 10.333-13 17v76.596h25v-0.5957c0-12.667 2.8333-24.5 8.5-35.5 5.6666-11 13.833-20.167 24.5-27.5l159.55-107.25c18-11.333 31.833-26.667 41.5-46 7.9862-15.973 12.62-32.639 14.008-49.977z"/>
 </g>
</svg>
