<?xml version="1.0" encoding="UTF-8"?>
<svg width="512" height="512" version="1.1" viewBox="-11 0 512 512" xmlns="http://www.w3.org/2000/svg">
 <path d="m15.102 77.805c-9.3699 0-17.066 4.0155-23.09 12.047-2.0078 4.0157-3.0117 8.0312-3.0117 12.047 0 4.0157 1.6731 9.3697 5.0195 16.062l92.361 138.54-92.361 138.54c-3.3464 5.3542-5.0195 10.708-5.0195 16.062 0 4.0157 1.3385 7.6966 4.0156 11.043 4.685 8.0314 12.047 12.047 22.086 12.047h331.29c26.771 0 48.187-11.043 64.25-33.129l86.338-131.51c2.6771-3.3464 4.0156-8.0312 4.0156-14.055 0-6.0235-1.3385-10.708-4.0156-14.055l-86.338-130.51c-7.3621-11.378-16.732-19.743-28.109-25.098-11.378-5.3542-23.424-8.0312-36.141-8.0312zm48.189 49.191h290.13c6.6928 0 12.047 3.0116 16.062 9.0352l76.299 118.46-76.299 117.46c-3.3464 3.3464-6.6927 6.0234-10.039 8.0313-3.3464 2.0078-7.0273 3.0117-11.043 3.0117h-106.15l77.301-113.44c2.6771-3.3464 4.0156-8.0312 4.0156-14.055s-1.3385-10.708-4.0156-14.055l-77.303-114.45h-63.248l86.338 129.51-84.328 126.49h-117.72l77.301-113.44c2.6771-3.3464 4.0156-8.0312 4.0156-14.055 0-6.0235-1.3385-10.708-4.0156-14.055z" stroke-width="1.0039"/>
</svg>
