<?xml version="1.0" encoding="UTF-8"?>
<svg width="512" height="512" version="1.1" viewBox="-10 0 512 512" xmlns="http://www.w3.org/2000/svg">
 <path d="m146.71 0.010636c-11.046-0.17946-21.943 2.1647-32.693 7.0313-19.112 8.652-32.431 23.314-39.955 43.987l-52.328 143.77h-2e-3l-31.736 87.2v153c0 22 7.5 40.333 22.5 55s33.166 22 54.5 22h358c21.334 0 39.5-7.3335 54.5-22 15-14.667 22.5-33 22.5-55v-153l-31.736-87.2h-2e-3l-52.328-143.77c-7.5244-20.673-20.843-35.335-39.955-43.987-10.75-4.8667-21.647-7.2108-32.693-7.0313h-198.57zm0 50h198.48c11.138 0 19.09 5.6544 23.875 18.803l52.328 143.77 25.266 69.415h-123.66c-16.667 0-25 8.3334-25 25 0 14.667-5 27-15 37s-22.333 15-37 15c-14 0-26-5-36-15s-15-22.333-15-37c0-16.667-8.3334-25-25-25h-124.66l25.266-69.415 52.328-143.77c4.7712-13.109 12.694-18.8 23.777-18.803zm36.104 44c-7.9644 0-14.222 2.2215-18.773 6.6661-4.5511 4.4445-6.8262 10.556-6.8262 18.334s2.2751 13.889 6.8262 18.334c4.5511 4.4445 10.809 6.6661 18.773 6.6661h126.37c7.9644-1e-5 14.222-2.2215 18.773-6.6661 4.551-4.4445 6.8262-10.556 6.8262-18.334-1e-5 -7.778-2.2751-13.889-6.8262-18.334-4.5511-4.4445-10.809-6.6661-18.773-6.6661h-63.184zm-38.787 93.987c-7.9644 0-14.222 2.2215-18.773 6.6661-4.5511 4.4445-6.8262 10.556-6.8262 18.334s2.2751 13.889 6.8262 18.334c4.5511 4.4445 10.809 6.6661 18.773 6.6661h203.95c7.9644-1e-5 14.222-2.2215 18.773-6.6661 4.551-4.4445 6.8262-10.556 6.8262-18.334s-2.2751-13.889-6.8262-18.334c-4.5511-4.4445-10.809-6.6661-18.773-6.6661h-129.53zm-102.04 145.01h105c5.3333 21.333 17.167 39.5 35.5 54.5s39.5 22.5 63.5 22.5c24.667 0 45.833-7.5001 63.5-22.5 17.667-15 29.833-33.167 36.5-54.5h104v102c0 17.333-8.3332 26-25 26h-358c-16.667 0-25-8.6668-25-26z"/>
</svg>
