<?xml version="1.0" encoding="UTF-8"?>
<!-- Created with Inkscape (http://www.inkscape.org/) -->
<svg width="512" height="512" version="1.1" viewBox="0 0 135.47 135.47" xmlns="http://www.w3.org/2000/svg">
 <g transform="matrix(3.7926 0 0 3.7926 -800.05 -102.76)" stroke-width=".26459" aria-label="">
  <path d="m214.49 56.637v-23.292q0-2.0836 1.7116-3.2743 1.7116-1.2651 4.0184-1.9348 2.3813-0.66974 4.7626-0.81857 2.4557-0.22325 3.8696-0.22325t3.7952 0.22325q2.3813 0.14883 4.6882 0.81857 2.3813 0.66974 4.0929 1.9348 1.7116 1.1907 1.7116 3.2743v23.292q0 2.0092-1.7116 3.2743-1.7116 1.1907-4.0929 1.8604-2.3069 0.66974-4.6882 0.89299-2.3813 0.14883-3.7952 0.14883-1.3395 0-3.7952-0.14883-2.3813-0.22325-4.7626-0.89299-2.3069-0.66974-4.0929-1.8604-1.7116-1.2651-1.7116-3.2743zm2.3813-23.292q0 1.1162 1.5627 1.8604 1.6372 0.74416 3.7208 1.1907 2.0836 0.37208 4.0184 0.52091 2.0092 0.14883 2.679 0.14883 0.66975 0 2.6046-0.14883 2.0092-0.14883 4.0929-0.52091 2.0836-0.4465 3.6464-1.1907 1.6372-0.74416 1.6372-1.8604 0-1.1907-3.051-2.4557t-8.9299-1.2651-8.9299 1.2651q-3.051 1.2651-3.051 2.4557zm3.051 18.009q1.7116 0.59533 4.0184 0.89299 2.3069 0.29766 4.9114 0.29766 2.6046 0 4.9114-0.29766 2.3069-0.29766 4.0184-0.89299 1.4139-0.59533 2.2325-1.2651 0.81857-0.66974 0.81857-1.2651v-4.0185q-1.9348 1.1907-5.0603 1.8604-3.051 0.66974-6.9207 0.66974-2.9766 0-6.1765-0.52091t-5.8044-2.0092v4.0185q0 0.59533 0.81857 1.2651 0.81858 0.66974 2.2325 1.2651zm0-7.7392q3.572 1.2651 8.9299 1.2651 5.3579 0 8.9299-1.2651 1.4139-0.59533 2.2325-1.1907 0.81857-0.66974 0.81857-1.2651v-4.0929q-1.0418 0.74416-2.6046 1.2651-1.4883 0.4465-3.1999 0.74416-1.6372 0.29766-3.2743 0.4465-1.6372 0.07442-2.9022 0.07442-1.2651 0-2.9022-0.07442-1.6372-0.14883-3.2743-0.4465t-3.1999-0.74416q-1.4883-0.52091-2.6046-1.2651v4.0929q0 0.59533 0.81857 1.2651 0.81858 0.59533 2.2325 1.1907zm0 15.478q3.572 1.2651 8.9299 1.2651 5.3579 0 8.9299-1.2651 1.4139-0.59533 2.2325-1.1907 0.81857-0.66974 0.81857-1.2651v-4.0929q-2.5301 1.6371-5.8044 2.0836-3.2743 0.4465-6.1765 0.4465-2.9022 0-6.1765-0.4465-3.2743-0.4465-5.8044-2.0836v4.0929q0 0.59533 0.81857 1.2651 0.81858 0.59533 2.2325 1.1907z"/>
 </g>
</svg>
