<?xml version="1.0" encoding="UTF-8"?>
<svg width="512" height="512" version="1.1" viewBox="-10 0 512 512" xmlns="http://www.w3.org/2000/svg">
 <path d="m452.4 52.101q12.023 10.02 19.037 21.542 7.0137 11.523 7.0137 27.554v310.61q0 15.029-8.0156 27.053-8.0157 12.023-18.035 22.043-9.0176 8.0156-22.544 15.029-13.526 7.0134-28.556 13.025-31.061 12.023-70.638 17.534-39.577 5.5108-84.665 5.5108t-84.665-5.5108q-39.577-5.5108-70.638-17.534-14.027-5.0098-27.554-11.522t-23.546-16.532q-26.051-21.041-26.051-49.096v-310.61q0-16.031 8.0157-27.554 8.0157-11.523 18.035-21.542 20.039-17.033 51.1-29.057 31.061-11.022 70.638-17.033 39.577-6.0117 84.665-6.0117t84.665 6.0117q39.577 6.0117 70.638 17.033 15.029 6.0117 28.556 12.524 13.526 6.5127 22.544 16.532zm-25.049 219.43q-6.0117 2.0039-12.023 5.5108-6.0118 3.5068-14.027 5.5108-31.061 11.022-70.638 17.033t-84.665 6.0117-84.665-6.0117-70.638-17.033q-16.031-5.0098-26.051-11.022v36.07q0 2.0039 1.002 4.0078 1.002 3.0059 7.0137 7.0137 6.0117 5.0098 15.53 10.521 9.5186 5.5108 20.54 9.5186 26.051 10.02 61.119 15.53 35.068 5.5108 76.149 5.5108 41.08 0 76.149-5.5108t61.119-15.53q11.022-5.0098 20.54-10.521 9.518-5.5112 15.53-9.5186 6.0118-4.0078 7.0137-7.0137 1.002-2.0039 1.002-4.0078zm0-103.2q-6.0117 2.0039-12.023 5.0098-6.0118 3.0059-14.027 5.0098-31.061 12.023-70.638 18.035t-84.665 6.0117-84.665-6.0117-70.638-18.035q-15.029-3.0059-26.051-10.02v36.07q0 1.002 1.002 3.0059 1.002 3.0059 7.0137 7.0137 14.027 13.025 36.07 21.041 26.051 10.02 61.119 15.53 35.068 5.5108 76.149 5.5108 41.08 0 76.149-5.5108 35.068-5.5108 61.119-15.53 11.022-6.0117 20.54-11.022 9.5186-5.0098 15.53-10.02 6.0118-4.0078 7.0137-7.0137 1.002-2.0039 1.002-3.0059zm-354.69-77.151q-5.0098 2.0039-7.0137 7.0137-1.002 2.0039-1.002 3.0059 0 1.002 1.002 3.0059 1.002 3.0059 7.0137 7.0137 14.027 13.025 36.07 21.041 26.051 10.02 61.119 15.53 35.068 5.5108 76.149 5.5108 41.08 0 76.149-5.5108t61.119-15.53q11.022-6.0117 20.54-11.523 9.5186-5.5108 15.53-9.5186 6.0118-4.0078 7.0137-7.0137 1.002-2.0039 1.002-3.0059 0-1.002-1.002-3.0059-2.0039-5.0098-7.0137-7.0137-13.025-14.027-36.07-21.041-26.051-10.02-61.119-15.53-35.068-5.5108-76.149-5.5108-41.08 0-76.149 5.5108-35.068 5.5108-61.119 15.53-11.022 6.0117-20.54 11.022-9.5186 5.0098-15.53 10.02zm346.68 330.65q6.0118-4.0078 7.0137-7.0137 1.002-2.0039 1.002-3.0059v-37.072q-6.0117 2.0039-12.023 5.5108-6.0118 3.5068-14.027 5.5108-31.061 11.022-70.638 17.033t-84.665 6.0117-84.665-6.0117-70.638-17.033q-16.031-4.0078-26.051-11.022v37.072q0 1.002 1.002 3.0059 1.002 3.0059 7.0137 7.0137 11.022 11.022 36.07 21.041 26.051 9.0176 61.119 14.528 35.068 5.5108 76.149 5.5108 41.08 0 76.149-5.5108 35.068-5.5108 61.119-14.528 11.022-6.0117 20.54-11.522 9.5186-5.5108 15.53-9.5186z" fill="currentColor" stroke-width="1.002"/>
</svg>
