<?xml version="1.0" encoding="UTF-8"?>
<svg width="512" height="512" version="1.1" viewBox="-10 0 512 512" xmlns="http://www.w3.org/2000/svg">
 <path d="m75.157-2.0628e-8c-24.128 0-44.352 8.1599-60.675 24.481-16.321 16.321-24.483 36.904-24.483 61.741v340.62c-6.7e-4 24.128 8.1612 44.354 24.483 60.676 16.322 16.321 36.546 24.481 60.675 24.481h340.62c24.838 6.7e-4 45.418-8.1592 61.739-24.481 16.321-16.322 24.481-36.548 24.481-60.676v-340.62c0-24.838-8.16-45.42-24.481-61.741-16.321-16.321-36.902-24.481-61.739-24.481zm-2.8477 52.995 2e-3 0.0059h89.058l-6e-3 -0.0059h258.33c8.685 0 15.742 2.7145 21.17 8.1426 5.428 5.4284 8.1407 12.486 8.1407 21.17v347.38c0 8.685-2.7128 15.742-8.1407 21.17-5.4284 5.4279-12.486 8.1426-21.17 8.1426h-347.38c-8.685 4e-4 -15.742-2.7141-21.17-8.1426-5.428-5.4284-8.1407-12.486-8.1407-21.17v-347.38c-4e-4 -8.685 2.7123-15.742 8.1407-21.17 5.4279-5.4275 12.485-8.1422 21.168-8.1426zm54.692 95.007c-7.3335 0-13.333 2.3333-18 7-4.6668 4.6667-7.0001 10.667-7.0001 18 0 7.3334 2.3333 13.333 7.0001 18l65.001 65-65.001 65c-4.6668 4.6667-7.0001 10.667-7.0001 18 0 6.6668 2.3333 12.667 7.0001 18 4.6667 4.6667 10.667 7 18 7 7.3334 0 13.333-2.3333 18-7l83.001-83.001c5.3334-5.3333 8.0001-11.333 8.0001-18 0-6.6668-2.6667-12.667-8.0001-18l-83.001-83.001c-4.6668-4.6667-10.667-7-18-7zm135 165c-8.0001 0-14.333 2.5-19 7.5001-4.6668 5-7.0001 11.167-7.0001 18.5 0 16.667 8.6667 25 26 25h102c7.3334 0 13.5-2.3333 18.5-7 5.0001-4.6667 7.5001-10.667 7.5001-18 0-7.3334-2.5-13.5-7.5001-18.5-5-5-11.167-7.5001-18.5-7.5001z"/>
</svg>
