<?xml version="1.0" encoding="UTF-8"?>
<!-- Created with Inkscape (http://www.inkscape.org/) -->
<svg width="512" height="512" version="1.1" viewBox="0 0 135.47 135.47" xmlns="http://www.w3.org/2000/svg">
 <g transform="matrix(12.8 0 0 12.8 -1149.4 -510.01)" stroke-width=".26458" aria-label="">
  <path d="m90.457 41.829q0-0.28939 0.18603-0.47542 0.20671-0.18604 0.49609-0.18604h1.3436q0.22738-0.57877 0.78548-0.66146 0.16536-0.28939 0.47542-0.47542 0.31006-0.18604 0.68213-0.18604 0.3514 0 0.66146 0.18604 0.31006 0.18603 0.47542 0.47542 0.5581 0.08268 0.78548 0.66146h1.3849q0.26872 0 0.45475 0.18604 0.18603 0.18604 0.18603 0.47542v1.3229h-0.64079v-1.3229h-1.4056q-0.10335 0.24805-0.26872 0.45475-0.14469 0.2067-0.45475 0.2067h-2.3771q-0.31006 0-0.47542-0.2067-0.14469-0.2067-0.24805-0.45475h-1.3643v7.9375h1.9637v0.66146h-1.9637q-0.28939 0-0.49609-0.2067-0.18603-0.18604-0.18603-0.45475zm2.9559 0h1.9844q0.14469 0 0.22738-0.10335 0.10335-0.10335 0.10335-0.22738 0-0.33073-0.33073-0.33073h-0.31006q0-0.28939-0.2067-0.47542-0.18603-0.18604-0.45475-0.18604-0.28939 0-0.47542 0.18604-0.18604 0.18603-0.18604 0.47542h-0.3514q-0.12402 0-0.22738 0.10335-0.10335 0.08268-0.10335 0.22738 0 0.12402 0.10335 0.22738 0.10335 0.10335 0.22738 0.10335zm0.3514 2.6458q0-0.28939 0.18604-0.47542 0.18603-0.18604 0.47542-0.18604h4.6302q0.26872 0 0.45475 0.18604 0.2067 0.18604 0.2067 0.47542v5.2916q0 0.26872-0.2067 0.45475-0.18604 0.2067-0.45475 0.2067h-4.6302q-0.28939 0-0.47542-0.2067-0.18604-0.18604-0.18604-0.45475zm0.66146 5.2916h4.6302v-5.2916h-4.6302zm0.99218-3.3073h2.6458q0.33073 0 0.33073 0.33073 0 0.12402-0.10335 0.22738-0.08268 0.10335-0.22738 0.10335h-2.6458q-0.12402 0-0.22738-0.10335t-0.10335-0.22738q0-0.14469 0.10335-0.22738 0.10335-0.10335 0.22738-0.10335zm0 1.3022h2.6458q0.33073 0 0.33073 0.33073 0 0.12402-0.10335 0.22738-0.08268 0.10335-0.22738 0.10335h-2.6458q-0.12402 0-0.22738-0.10335-0.10335-0.10335-0.10335-0.22738 0-0.14469 0.10335-0.22738 0.10335-0.10335 0.22738-0.10335z"/>
 </g>
</svg>
