<?xml version="1.0" encoding="UTF-8"?>
<!-- Created with Inkscape (http://www.inkscape.org/) -->
<svg width="512" height="512" version="1.1" viewBox="0 0 135.47 135.47" xmlns="http://www.w3.org/2000/svg">
 <g transform="matrix(1 0 0 1 .00011515 .00011528)" stroke-width="3.3933" aria-label="">
  <path d="m115.05-1.1528e-4q3.1812 0 5.0369 2.1208 1.8557 1.8557 1.8557 4.7718v40.561q0 2.9161-1.8557 5.0369-1.8557 1.8557-5.0369 1.8557-2.9161 0-4.7718-1.8557-1.8557-2.1208-1.8557-5.0369v-33.933h-44.802l-2.651 2.9161v17.497q0 5.5671-3.9765 9.5437-3.9765 3.9765-9.5437 3.9765h-17.762l-2.651 2.651v71.843h20.413q6.6275 0 6.6275 6.8926 0 6.6275-6.6275 6.6275h-27.04q-6.8926 0-6.8926-6.6275v-81.386q0-2.651 2.1208-4.7718l40.561-40.561q2.1208-2.1208 4.7718-2.1208zm-36.584 83.507q2.1208 2.1208 2.1208 4.7718 0 2.3859-2.1208 4.5067l-8.7484 9.0135 8.7484 8.7484q2.1208 2.1208 2.1208 4.7718 0 2.3859-2.1208 4.5067-2.1208 2.1208-4.7718 2.1208-2.3859 0-4.5067-2.1208l-13.785-13.52q-2.1208-2.1208-2.1208-4.5067 0-2.651 2.1208-4.7718l13.785-13.52q2.1208-2.1208 4.5067-2.1208 2.651 0 4.7718 2.1208zm40.826 13.52q2.1208 2.1208 2.1208 4.7718 0 2.3859-2.1208 4.5067l-13.785 13.52q-2.1208 2.1208-4.7718 2.1208-2.3859 0-4.5067-2.1208-2.1208-2.1208-2.1208-4.5067 0-2.651 2.1208-4.7718l8.7484-8.7484-8.7484-9.0135q-2.1208-2.1208-2.1208-4.5067 0-2.651 2.1208-4.7718 2.1208-2.1208 4.5067-2.1208 2.651 0 4.7718 2.1208z"/>
 </g>
</svg>
