<?xml version="1.0" encoding="UTF-8"?>
<!-- Created with Inkscape (http://www.inkscape.org/) -->
<svg width="512" height="512" version="1.1" viewBox="0 0 135.47 135.47" xmlns="http://www.w3.org/2000/svg">
 <g transform="matrix(12.8 0 0 12.8 -338.83 -457.08)" stroke-width=".26458" aria-label="î˜">
  <path d="m26.471 38.583q0-0.14469 0.06201-0.26872 0.02067-0.06201 0.14469-0.18604 0.16536-0.08268 0.31006-0.08268h3.1212l0.49609 0.53743h1.757l0.74414-0.74414q-0.02067-0.04134-0.02067-0.14469v-1.3436q0-0.26872 0.18604-0.45475 0.18603-0.18604 0.45475-0.18604h1.3436q0.26872 0 0.45475 0.18604 0.2067 0.18603 0.2067 0.45475v1.3436q0 0.26872-0.2067 0.47542-0.18603 0.18604-0.45475 0.18604h-1.3436q-0.06201 0-0.14469-0.04134l-0.5581 0.5581q0.02067 0.06201 0.04134 0.12402 0.02067 0.06201 0.02067 0.12402v1.5503h1.3229v-0.3514q0-0.26872 0.18603-0.45475 0.18604-0.18604 0.45475-0.18604h1.3436q0.26872 0 0.45475 0.18604 0.2067 0.18603 0.2067 0.45475v1.3436q0 0.26872-0.2067 0.47542-0.18604 0.18603-0.45475 0.18603h-1.3436q-0.26872 0-0.45475-0.18603-0.18603-0.2067-0.18603-0.47542v-0.33073h-1.3229v2.0671q0 0.02067-0.02067 0.02067 0 0 0 0.02067l0.33073 0.31006q0.16536-0.10335 0.33073-0.10335h1.3436q0.26872 0 0.45475 0.18603 0.2067 0.18604 0.2067 0.45475v1.3436q0 0.26872-0.2067 0.45475-0.18603 0.2067-0.45475 0.2067h-1.3436q-0.26872 0-0.45475-0.2067-0.18604-0.18604-0.18604-0.45475v-1.2609l-0.47542-0.45475q-0.02067 0-0.04134 0.02067 0 0-0.02067 0h-5.5604q-0.14469 0-0.26872-0.06201-0.10335-0.06201-0.16536-0.16536-0.08268-0.10335-0.08268-0.31006zm5.9324 4.6922 0.02067-4.0307h-2.1084l-0.49609-0.53743h-2.6872v4.5682zm1.3229-6.904 0.02067 1.3229h1.3229v-1.3229zm1.3436 5.2916h1.3229v-1.3229h-1.3436zm-1.3229 3.9687h1.3229v-1.3229h-1.3436z"/>
 </g>
</svg>
