<?xml version="1.0" encoding="UTF-8"?>
<svg width="2e3" height="2e3" version="1.2" viewBox="0 0 2e3 2e3" xmlns="http://www.w3.org/2000/svg">
 <path d="m1e3 2e3c-553 0-1e3 -447-1e3 -1e3s447-1e3 1e3 -1e3 1e3 447 1e3 1e3 -447 1e3 -1e3 1e3z" fill="#fecc04"/>
 <path id="Layer" class="s1" d="m956.36 512.54c-321.67 0-593.65 135.51-688.38 323.45h1376.7c-4.3142-8.56-9.1205-16.97-14.158-25.305l99.795-238.23-166.15-49.33-172.28 83.922c-121.16-59.261-271.85-94.502-435.58-94.502zm-711.93 383.45c-5.2357 18.313-8.7414 37.015-10.67 56h1445.2c-1.9284-18.985-5.4342-37.687-10.67-56h-1423.9zm-10.84 116c1.8126 19.013 5.5602 37.671 10.742 56h1424c5.1819-18.329 8.9296-36.987 10.742-56h-1445.5zm34.051 116c63.052 126.02 205.97 228.32 389.97 282.42 3.0089 36.508 12.204 85.57 41.488 121.94 25.69 31.91 56.309 42.121 234.39 41.131 150.55-0.84 183.14-8.3108 214.18-41.131 31.553-33.369 46.394-76.896 53.896-107.85 70.681-16.483 136.19-39.815 194.68-68.891l165.97 80.852 166.15-49.33-97.709-233.26c5.1384-8.5233 10.032-17.126 14.414-25.885h-1377.4z"/>
</svg>
