<?xml version="1.0" encoding="UTF-8"?>
<!-- Created with Inkscape (http://www.inkscape.org/) -->
<svg width="512" height="512" version="1.1" viewBox="0 0 135.47 135.47" xmlns="http://www.w3.org/2000/svg">
 <g transform="matrix(.99805 0 0 .99805 -1.1741e-7 -6.5354e-6)" stroke-width="3.3932" aria-label="">
  <path d="m67.866 2.861e-6q14.05 0 26.245 5.302 12.46 5.302 21.738 14.58 9.2785 9.0134 14.58 21.473t5.302 26.51q0 14.05-5.302 26.51-5.302 12.195-14.58 21.473-9.2785 9.2785-21.738 14.58-12.195 5.302-26.245 5.302-14.05 0-26.51-5.302-12.46-5.302-21.738-14.58-9.0134-9.2785-14.315-21.473-5.302-12.46-5.302-26.51 0-14.05 5.302-26.51 5.302-12.46 14.315-21.473 9.2785-9.2785 21.738-14.58 12.46-5.302 26.51-5.302zm25.45 49.309q0-8.4832-7.1577-15.111-7.1577-6.6275-20.413-6.6275-12.195 0-19.352 6.3624-6.8926 6.3624-7.6879 15.641h13.785q1.3255-6.3624 4.5067-8.4832 3.4463-2.3859 9.5436-2.3859t9.2785 3.4463q3.1812 3.1812 3.1812 7.1577 0 2.651-0.7953 3.7114-0.5302 1.0604-3.4463 3.9765l-5.302 4.5067q-3.9765 3.1812-6.0973 5.5671-2.1208 2.3859-3.1812 5.0369-0.7953 2.3859-1.0604 5.5671-0.2651 2.9161-0.2651 7.1577h13.255q0-3.1812 0-5.0369 0.2651-1.8557 0.7953-3.1812 0.7953-1.5906 2.1208-2.9161t3.9765-3.4463l7.1577-6.6275 4.2416-4.7718 2.3859-4.2416zm-26.775 63.359q3.9765 0 6.8926-2.9161 2.9161-2.9161 2.9161-6.8926 0-3.9765-2.9161-6.6275-2.9161-2.9161-6.8926-2.9161-3.9765 0-6.8926 2.9161-2.651 2.651-2.651 6.6275 0 3.9765 2.651 6.8926 2.9161 2.9161 6.8926 2.9161z"/>
 </g>
</svg>
