<?xml version="1.0" encoding="UTF-8"?>
<svg width="24" height="24" version="1.1" viewBox="-10 0 24 24" xml:space="preserve" xmlns="http://www.w3.org/2000/svg"><path d="m-0.43712 0.5c-0.68482 0.0145-1.273 0.52128-1.391 1.1959l-0.33099 2.3524-1.0836 0.63243-2.2027-0.88068c-0.64505-0.24527-1.3857 0.0133-1.7377 0.60682l-2.1258 3.6764c-0.34497 0.59508-0.20985 1.3646 0.31523 1.8086h2e-3v2e-3s1.2279 0.96543 1.8776 1.4757v1.2609c-0.64969 0.51023-1.8776 1.4757-1.8776 1.4757v2e-3h-2e-3c-0.52508 0.44401-0.66021 1.2135-0.31523 1.8086l2.1258 3.6764c0.35203 0.59351 1.0927 0.85208 1.7377 0.60681l2.2027-0.88067 1.0836 0.63243 0.33099 2.3524c0.11791 0.67463 0.70613 1.1814 1.3909 1.1959h4.8742c0.68482-0.0145 1.273-0.52125 1.391-1.1959l0.33099-2.3524 1.0856-0.63243 2.2007 0.88067c0.64505 0.24527 1.3857-0.0133 1.7377-0.60682l2.1258-3.6764c0.34498-0.5951 0.20985-1.3646-0.31523-1.8086l-2e-3 -2e-3s-1.2253-0.96301-1.8756-1.4737v-1.2649c0.65027-0.5107 1.8756-1.4737 1.8756-1.4737l2e-3 -2e-3c0.52508-0.44402 0.6602-1.2136 0.31523-1.8086l-2.1258-3.6764c-0.35203-0.59351-1.0927-0.85209-1.7377-0.60682l-2.2007 0.88068-1.0856-0.63243-0.33099-2.3524c-0.11791-0.67462-0.70613-1.1814-1.391-1.1959zm0.33099 1.7889h4.2123l0.29159 2.0549c0.07974 0.57269 0.3732 0.8408 0.87279 1.1762l1.0087 0.66001c0.49318 0.29865 1.0364 0.31653 1.5821 0.18326l1.9367-0.77826 1.8067 3.1227-1.6293 1.2826c-0.44868 0.3518-0.65016 0.9039-0.65016 1.4619v1.0954c0 0.55798 0.20148 1.1101 0.65016 1.4619l1.6293 1.2826-1.8067 3.1227-1.9367-0.77825c-0.54992-0.1657-1.0814-0.0803-1.5821 0.18324l-1.0087 0.66001c-0.49938 0.3353-0.79301 0.60335-0.87279 1.1762l-0.29159 2.0549h-4.2123l-0.28962-2.0549c-0.08071-0.57963-0.38008-0.84409-0.87476-1.1762l-1.0087-0.66001c-0.49264-0.29857-1.035-0.31647-1.5801-0.18327l-1.9387 0.77825-1.8067-3.1227 1.6313-1.2826c0.44868-0.35181 0.64819-0.90391 0.64819-1.4619v-1.0954c0-0.55797-0.19951-1.1101-0.64819-1.4619l-1.6313-1.2826 1.8067-3.1227 1.9387 0.77825c0.54937 0.16575 1.08 0.0801 1.5801-0.18326l1.0087-0.66001c0.49464-0.33204 0.79404-0.59652 0.87476-1.1762zm2.1061 5.6406c-2.2465-2e-5 -4.0704 1.8239-4.0704 4.0704-2.2e-5 2.2465 1.8239 4.0704 4.0704 4.0704 2.2465-2e-5 4.0704-1.8239 4.0704-4.0704 2.2e-5 -2.2465-1.8239-4.0704-4.0704-4.0704zm0 1.7988c1.2558 2e-5 2.2716 1.0158 2.2716 2.2716-1.9e-5 1.2558-1.0158 2.2716-2.2716 2.2716-1.2558 2e-5 -2.2716-1.0158-2.2716-2.2716 2e-5 -1.2558 1.0158-2.2716 2.2716-2.2716z" /></svg>
