<?xml version="1.0" encoding="UTF-8"?>
<svg width="64" height="64" version="1.1" viewBox="-10 0 64 64" xml:space="preserve" xmlns="http://www.w3.org/2000/svg"><path d="m38.082 9c-0.65886 0-1.1979 0.20963-1.6172 0.6289l-2.3359 2.3359c-0.41927 0.41927-0.6289 0.95834-0.6289 1.6172 0 0.53906 0.20963 1.0781 0.6289 1.6172l4.6719 4.582c0.35937 0.47916 0.89844 0.71875 1.6172 0.71875 0.59892 0 1.138-0.23959 1.6172-0.71875l2.3359-2.2461c0.41927-0.41927 0.62891-0.98828 0.62891-1.707 0-0.65885-0.20964-1.1979-0.62891-1.6172l-4.6719-4.582c-0.35938-0.41927-0.89848-0.6289-1.6172-0.6289zm-30.996 5.75c-2.276 0-4.1927 0.77865-5.75 2.3359-1.5573 1.5573-2.3359 3.474-2.3359 5.75v24.078c0 2.276 0.77865 4.1927 2.3359 5.75 1.5573 1.5573 3.474 2.3359 5.75 2.3359h24.078c2.276 0 4.1927-0.77865 5.75-2.3359s2.3359-3.474 2.3359-5.75v-6.8281c0-0.65885-0.22461-1.2129-0.67383-1.6621-0.44922-0.44921-1.0033-0.67382-1.6621-0.67382s-1.1979 0.22461-1.6172 0.67382c-0.41927 0.44922-0.6289 1.0033-0.6289 1.6621v6.8281c0 1.0182-0.32943 1.8568-0.98828 2.5156-0.65886 0.65886-1.4974 0.98828-2.5156 0.98828h-24.078c-1.0182 0-1.8568-0.32942-2.5156-0.98828-0.65885-0.65885-0.98828-1.4974-0.98828-2.5156v-24.078c0-1.0182 0.32943-1.8568 0.98828-2.5156s1.4974-0.98828 2.5156-0.98828h9.7031c0.65885 0 1.2129-0.20964 1.6621-0.62891s0.67383-0.95833 0.67383-1.6172c0-0.65885-0.22461-1.2129-0.67383-1.6621-0.44922-0.44921-1.0033-0.67382-1.6621-0.67382zm24.348 1.0781c-0.59896 0-1.138 0.23959-1.6172 0.71875l-15.812 16.082c-0.41927 0.53906-0.6289 1.0781-0.6289 1.6172v4.582c0 0.65885 0.22461 1.2129 0.67383 1.6621 0.44921 0.44922 1.0032 0.67383 1.6621 0.67383h4.4922c0.59896 0 1.138-0.23959 1.6172-0.71875l15.723-16.082c0.47916-0.47917 0.71875-1.0182 0.71875-1.6172 0-0.59896-0.23959-1.138-0.71875-1.6172l-4.4922-4.582c-0.35938-0.47916-0.89848-0.71875-1.6172-0.71875zm0 5.6602 1.2578 1.2578-13.477 13.836h-1.2578v-1.3477z"/></svg>
