<?xml version="1.0" encoding="UTF-8"?>
<svg width="512" height="512" version="1.1" viewBox="-10 0 512 512" xmlns="http://www.w3.org/2000/svg">
 <path d="m245.98 33.394c-33.733 2.39e-4 -65.468 6.1498-95.252 18.305-0.41359 0.16253-0.83099 0.29819-1.2441 0.46289-0.39365 0.15686-0.77346 0.34117-1.166 0.5-0.607 0.25528-1.2247 0.47204-1.8301 0.73242-0.63667 0.27384-1.2474 0.58132-1.8809 0.85938-29.386 12.458-55.955 30.452-79.627 54.125-23.673 23.673-41.667 50.241-54.125 79.627-0.27803 0.63343-0.58554 1.2442-0.85938 1.8809-0.26038 0.60537-0.47712 1.225-0.73242 1.832-0.15884 0.39264-0.34313 0.77245-0.5 1.166-0.16469 0.41329-0.30036 0.8305-0.46289 1.2441-12.154 29.783-18.305 61.517-18.305 95.252 0 33.453 6.0532 64.941 18.006 94.51 0.26487 0.68021 0.49097 1.3655 0.76172 2.0449 0.25749 0.64612 0.55558 1.2706 0.81836 1.9141 0.14471 0.34072 0.26578 0.68916 0.41211 1.0293 0.15357 0.35707 0.32751 0.69863 0.48242 1.0547 7.2278 17.238 16.444 33.464 27.504 48.75 3.0321 4.0859 6.1059 8.2275 8.8418 11.592l0.55469 0.6875c5.6416 6.8668 11.671 13.488 18.117 19.846 5.6705 4.9524 11.86 7.547 18.568 7.7832 6.7083 0.23634 12.561-2.4629 17.557-8.0957l19.613-19.533 16.59-16.588c5.1857-5.1857 7.6576-11.195 7.4219-18.031-0.23571-6.8357-2.9452-12.847-8.1309-18.033-5.1857-5.1857-11.193-7.8951-18.029-8.1309s-12.847 2.2382-18.033 7.4238l-16.594 16.598c-4.6724-6.0858-9.117-12.363-13.105-19.014-0.30358-0.51272-0.59344-1.032-0.89258-1.5469-2.3049-3.9205-4.4732-7.9518-6.543-12.064-0.82542-1.6547-1.6082-3.3305-2.3906-5.0059-1.4398-3.0545-2.8162-6.1317-4.1074-9.2383-1.1579-2.8172-2.2416-5.6678-3.2832-8.541-0.74597-2.0347-1.4838-4.0725-2.168-6.1289-1.3408-4.0769-2.5633-8.1669-3.6406-12.27-0.23184-0.86515-0.47398-1.7268-0.69531-2.5957-1.847-7.4252-3.1308-14.901-4.1172-22.41h23.482c7.3329 0 13.333-2.5003 18-7.5 4.6664-4.9997 6.998-11.167 6.998-18.5 0-7.3326-2.3316-13.498-6.998-18.498-4.6664-4.9997-10.667-7.5-18-7.5h-23.479c1.7447-13.253 4.6616-26.394 9.0879-39.387 3.6212-10.63 8.0376-20.883 13.223-30.76 0.17741-0.33148 0.36394-0.6561 0.54297-0.98633 2.0329-3.8244 4.2415-7.5595 6.5098-11.27 2.3291-3.7199 4.6828-7.4202 7.2363-10.969 1.3494-1.8751 2.8594-3.6279 4.2715-5.4551l16.658 16.654c5.1857 5.1857 11.195 7.6596 18.031 7.4238 6.8357-0.23571 12.845-2.945 18.031-8.1308 5.1857-5.1857 7.895-11.193 8.1308-18.029 0.23569-6.8357-2.2381-12.845-7.4238-18.031l-16.666-16.668c1.8682-1.4487 3.6567-2.989 5.5781-4.377 0.017-0.0122 0.0338-0.0249 0.0508-0.0371 3.6784-2.6553 7.5165-5.1258 11.391-7.5586 3.5126-2.1584 7.0461-4.259 10.635-6.1894 0.53466-0.29518 1.0615-0.59934 1.5996-0.89062 9.8979-5.2143 20.077-9.5843 30.549-13.074 12.831-4.2771 25.857-7.0973 39.033-8.7871v23.529c0 7.3329 2.5003 13.331 7.5 17.998 4.9997 4.6664 11.165 7 18.498 7 7.3329 0 13.5-2.3336 18.5-7 4.9997-4.6664 7.5-10.665 7.5-17.998v-23.553l-2e-3 -2e-3c13.347 1.6859 26.617 4.5132 39.791 8.8086 8.9211 2.909 17.501 6.4596 25.781 10.57 19.758 10.282 37.408 23.16 52.918 38.67 15.666 15.666 28.665 33.497 38.998 53.496 2.4292 4.7016 4.6273 9.5038 6.6328 14.391 1.4527 3.6957 2.809 7.4264 4.0176 11.219 4.1407 12.993 6.8698 26.136 8.502 39.389h-23.65c-7.3328 0-13.331 2.4985-17.998 7.498-4.6664 4.9997-7 11.167-7 18.5 0 7.3326 2.3336 13.498 7 18.498 4.6664 4.9997 10.665 7.5 17.998 7.5h23.658c-1.5546 12.65-4.1602 25.192-8 37.605-3.0257 9.175-6.7138 18.148-11.156 26.891-6.2717 12.341-13.652 23.716-21.889 34.338l-16.609-16.611c-5.1858-5.1857-11.197-7.6596-18.033-7.4238-6.8357 0.23571-12.845 2.9451-18.031 8.1309-5.1857 5.1857-7.8952 11.195-8.1309 18.031-0.23571 6.8357 2.2381 12.847 7.4238 18.033l16.59 16.588 19.518 19.42c4.9756 5.6503 10.814 8.3692 17.523 8.1562 6.7091-0.21286 12.91-2.7842 18.598-7.7168 6.4915-6.3575 12.555-12.989 18.244-19.859l3.3457-4.1856c14.758-18.746 26.53-39.012 35.23-60.844 0.5358-1.3446 0.99492-2.6992 1.5078-4.0469 8.5101-21.602 13.894-44.22 16.062-67.883 0.35411-3.8646 0.65094-7.7468 0.83594-11.666 0.2144-4.2952 0.33593-8.6037 0.33593-12.928 0-4.1626-0.12136-8.3088-0.32226-12.443-0.093-2.0464-0.26765-4.0663-0.40625-6.0977-0.1143-1.5722-0.1984-3.1485-0.3418-4.7168-2.3055-26.725-8.5874-52.158-18.955-76.264-13.332-30.998-31.666-58.165-54.998-81.496-23.332-23.332-50.496-41.664-81.494-54.996-0.4717-0.20289-0.95517-0.37051-1.4277-0.57031v-0.01172c-0.51-0.20727-1.0039-0.44646-1.5156-0.65039-0.6794-0.27074-1.3647-0.49684-2.0449-0.76172-29.567-11.952-61.054-18.006-94.506-18.006h-2e-3zm104.72 127.25v2e-3c-1.4202 1e-4 -2.8043 0.10974-4.1641 0.29102-0.0919 0.01-0.18365 0.0204-0.27539 0.0312-4.9289 0.70325-9.466 2.5916-13.598 5.6894l-97.188 71.139c-11.356 2.6719-21.043 8.6844-29.059 18.035-8.0156 9.3516-12.021 20.373-12.021 33.064 0 14.027 5.0109 26.049 15.029 36.068 10.02 10.02 22.041 15.029 36.068 15.029 13.359 0 24.546-4.0076 33.562-12.021 9.0176-8.0156 14.861-17.703 17.533-29.059l72.143-97.189c2.6202-4.1925 4.1953-8.6978 4.7598-13.508 0.0178-0.15739 0.0341-0.31494 0.0488-0.47265 0.073-0.70498 0.12355-1.4166 0.15235-2.1348 0.0272-0.301 0.0506-0.60249 0.0664-0.9043-9.9e-4 -0.77353-0.0395-1.5466-0.11523-2.3164v-0.0371c-0.092-1.0681-0.26228-2.103-0.51758-3.0996-1.6538-7.0909-6.4392-13.048-13.006-16.193-2.6496-1.59-5.7769-2.4138-9.4199-2.4141zm-104.71 103.75c13.807 2e-5 25 11.193 25 25 3e-5 13.807-11.193 25-25 25-13.807-2e-5 -25-11.193-25-25-3e-5 -13.807 11.193-25 25-25z"/>
</svg>
