<?xml version="1.0" encoding="utf-8"?>
<!-- Generator: Adobe Illustrator 17.1.0, SVG Export Plug-In . SVG Version: 6.00 Build 0)  -->
<!DOCTYPE svg PUBLIC "-//W3C//DTD SVG 1.1//EN" "http://www.w3.org/Graphics/SVG/1.1/DTD/svg11.dtd">
<svg version="1.1" id="Layer_1" xmlns="http://www.w3.org/2000/svg" xmlns:xlink="http://www.w3.org/1999/xlink" x="0px" y="0px"
     viewBox="0 0 69 56" enable-background="new 0 0 69 56" xml:space="preserve">
<g>
    <g>
		<path fill-rule="evenodd" clip-rule="evenodd" fill="none" stroke="#454545" stroke-miterlimit="10" d="M47.5,19.4l2.3-1.8h8.6
			L52.6,25l5.2,0.1 M49.8,28.2h4l3.4,4.8h-7.7l-2.3-1.6c0,0-1.8,1.3-3.9,1.8c-1.9,0.5-4.1,0.2-4.1,0.2l-0.9,2.8h-7.9"/>
		<path fill-rule="evenodd" clip-rule="evenodd" fill="none" stroke="#454545" stroke-miterlimit="10" d="M31.7,33.6
			c-8.4-0.5-15.8-4.5-16.2-8.8c0-0.1,0-0.2,0-0.3c0,0,0-0.4,0-0.4c0-4.8,7.9-9.1,17.6-9.1c6.6,0,12.8,2,15.8,4.6"/>
		<path fill-rule="evenodd" clip-rule="evenodd" fill="none" stroke="#454545" stroke-miterlimit="10" d="M37.8,24.7H15.6"/>
	</g>
	<g>
		<path fill="none" stroke="#454545" stroke-width="2" d="M47.5,19.4l2.3-1.8h8.6L52.6,25l5.2,0.1 M49.8,28.2h4l3.4,4.8h-7.7
			l-2.3-1.6c0,0-1.8,1.3-3.9,1.8c-1.9,0.5-4.1,0.2-4.1,0.2l-0.9,2.8h-7.9"/>
		<path fill="none" stroke="#454545" stroke-width="2" d="M31.7,33.6c-8.4-0.5-15.8-4.5-16.2-8.8c0-0.1,0-0.2,0-0.3c0,0,0-0.4,0-0.4
			c0-4.8,7.9-9.1,17.6-9.1c6.6,0,12.8,2,15.8,4.6"/>
		<path fill="none" stroke="#454545" stroke-width="2" d="M37.8,24.7H15.6"/>
	</g>
</g>
</svg>
