<?xml version="1.0" encoding="UTF-8"?>
<svg width="512" height="512" version="1.1" viewBox="0 0 512 512" xmlns="http://www.w3.org/2000/svg">
 <path d="m81.185 225.4-17.37 17.37 23.411 23.411c-17.653 13.499-31.53 33.276-40.404 56.263l-29.453-14.727-10.573 21.901 33.229 16.615c-2.2184 10.573-3.776 21.523-3.776 32.852 0 4.1064 0.09437 8.0713 0.3776 12.083h-36.628v24.167h40.781c2.9264 12.603 6.7969 24.639 12.461 35.495l-36.25 27.188 14.349 19.635 35.495-26.432c19.541 24.827 46.965 40.781 78.164 40.781s58.623-15.954 78.164-40.781l35.495 26.432 14.349-19.635-36.25-27.188c5.6641-10.856 9.5345-22.892 12.461-35.495h40.781v-24.167h-36.628c0.28321-4.012 0.3776-7.9769 0.3776-12.083 0-11.328-1.5576-22.279-3.776-32.852l33.229-16.615-10.573-21.901-29.453 14.727c-8.8737-22.987-22.751-42.764-40.404-56.263l23.411-23.411-17.37-17.37-27.943 27.943c-11.139-4.7201-23.223-7.1745-35.872-7.1745s-24.733 2.4544-35.872 7.1745zm63.815 44.935c23.883 0 46.256 13.216 61.927 34.74-13.688 6.1833-35.353 13.594-61.927 13.594s-48.239-7.4105-61.927-13.594c15.671-21.523 38.044-34.74 61.927-34.74zm-73.633 55.508c13.924 6.5609 35.306 14.255 61.549 16.237v144.62c-39.884-7.5521-72.5-51.685-72.5-107.62 0-19.541 4.0593-37.619 10.951-53.242zm147.27 0c6.8913 15.623 10.951 33.701 10.951 53.242 0 55.933-32.616 100.07-72.5 107.62v-144.62c26.243-1.9824 47.625-9.6761 61.549-16.237z" stroke-width="7.7334"/>
 <path d="m148.79 0c-9.2857 0-17.5 3.214-24.643 9.6426-6.4286 6.4286-9.6426 14.643-9.6426 24.643v180.86l4.9004 4.9004c8.3664-1.6807 16.943-2.5332 25.6-2.5332s17.235 0.85248 25.602 2.5332l12.471-12.471v-109l217.5 144.64-93.52 60.35 18.945 39.242v13.008 6.6992 10.41l177.43-114.71c5.7143-3.5714 8.5723-8.2154 8.5723-13.93 0-6.4286-2.858-11.429-8.5723-15l-336.43-223.93c-7.1428-3.5714-13.215-5.3574-18.215-5.3574z"/>
 <rect x="331.54" y="337.21" width="7.7589" height="28.051" ry="3.8794"/>
</svg>
