<?xml version="1.0" encoding="UTF-8"?>
<!-- Created with Inkscape (http://www.inkscape.org/) -->
<svg width="512" height="512" version="1.1" viewBox="0 0 135.47 135.47" xmlns="http://www.w3.org/2000/svg">
 <g transform="matrix(1 0 0 1 .00011399 .00047427)" stroke-width="3.3933" aria-label="">
  <path d="m115.32 20.28q8.4832 0 14.315 5.8322 5.8322 5.8322 5.8322 14.581v67.601q0 8.7484-5.8322 14.581-5.8322 5.8322-14.315 5.8322h-94.906q-8.7484 0-14.581-5.8322-5.8322-5.8322-5.8322-14.581v-81.121q0-8.7484 5.8322-14.581 5.8322-5.8322 14.581-5.8322h33.933q2.1208 0 4.7718 2.1208l11.399 11.399zm6.6275 20.413q0-2.9161-1.8557-4.7718-1.8557-2.1208-4.7718-2.1208h-47.453q-2.9161 0-4.7718-1.8557l-11.664-11.664h-31.017q-2.9161 0-5.0369 1.8557-1.8557 1.8557-1.8557 5.0369v81.121q0 3.1812 1.8557 5.0369 2.1208 1.8557 5.0369 1.8557h94.906q6.6275 0 6.6275-6.8926z"/>
 </g>
</svg>
