<?xml version="1.0" encoding="UTF-8"?>
<svg width="20" height="12" version="1.1" viewBox="0 0 5.2917 3.175" xmlns="http://www.w3.org/2000/svg">
 <g transform="matrix(.99975 0 0 .99975 0 -.00039051)" stroke-width=".088106" aria-label="î¦">
  <path d="m1.1965 1.6698q0.04116-0.04116 0.04116-0.08232t-0.04116-0.07546l-1.077-1.0907q-0.0686-0.0686-0.0686-0.15778 0-0.08918 0.0686-0.15092 0.06174-0.0686 0.15092-0.0686 0.08918 0 0.15778 0.0686l1.3103 1.324q0.06174 0.06174 0.06174 0.15778 0 0.08918-0.06174 0.15092l-1.3171 1.3171q-0.0686 0.0686-0.15778 0.0686-0.08918 0-0.15778-0.0686-0.06174-0.06174-0.06174-0.15092 0-0.09604 0.06174-0.15778z" color="#000000" style="-inkscape-stroke:none"/>
  <path d="m0.26953 0c-0.069842 0-0.13363 0.029753-0.18164 0.082031-0.052278 0.048013-0.080078 0.1118-0.080078 0.18164 0 0.070749 0.027595 0.13697 0.080078 0.18945l1.0781 1.0918h0.00195c0.020782 0.017319 0.025391 0.030213 0.025391 0.042969s-0.0051 0.028533-0.027344 0.050781l-1.0918 1.084c-0.049236 0.049236-0.074219 0.11599-0.074219 0.18945 0 0.06962 0.02556 0.13298 0.074219 0.18164 0.052483 0.052482 0.1187 0.082031 0.18945 0.082031 0.070749 0 0.13697-0.029549 0.18945-0.082031l1.3164-1.3164c0.048659-0.048659 0.074219-0.11397 0.074219-0.18359 0-0.073467-0.024983-0.13826-0.074219-0.1875l-1.3105-1.3242c-0.052483-0.052483-0.1187-0.082031-0.18945-0.082031zm0 0.087891c0.048158 0 0.087969 0.017656 0.12695 0.056641l1.3105 1.3223c0.033084 0.033084 0.048828 0.072366 0.048828 0.12695 0 0.049287-0.015167 0.087433-0.048828 0.12109l-1.3164 1.3164c-0.038984 0.038984-0.078795 0.056641-0.12695 0.056641-0.048158 0-0.087969-0.017657-0.12695-0.056641-0.033661-0.033661-0.048828-0.069853-0.048828-0.11914 0-0.054587 0.015744-0.093869 0.048828-0.12695l1.0918-1.084c0.032632-0.032632 0.052734-0.071157 0.052734-0.11328 0-0.042124-0.022543-0.08096-0.056641-0.10938l0.00391 0.00195-1.0781-1.0898c-0.038984-0.038984-0.054688-0.078795-0.054688-0.12695 0-0.048158 0.01484-0.085036 0.052734-0.11914h0.001953l0.001953-0.001953c0.034105-0.037894 0.06903-0.054688 0.11719-0.054688z" color="#000000" fill="#fff" style="-inkscape-stroke:none"/>
 </g>
</svg>
