<?xml version="1.0" encoding="UTF-8"?>
<!-- Created with Inkscape (http://www.inkscape.org/) -->
<svg width="512" height="512" version="1.1" viewBox="0 0 135.47 135.47" xmlns="http://www.w3.org/2000/svg">
 <path transform="scale(.26458)" d="m85.334 0c-24.178 0-44.445 8.1776-60.801 24.533-16.356 16.356-24.533 36.623-24.533 60.801v341.33c-4.737e-15 24.178 8.1776 44.445 24.533 60.801 16.356 16.356 36.623 24.533 60.801 24.533h341.33c24.889 0 45.156-8.1776 60.801-24.533 16.356-16.356 24.533-36.623 24.533-60.801v-341.33c0-24.178-8.1776-44.445-24.533-60.801-15.644-16.356-35.912-24.533-60.801-24.533h-341.33zm204.49 102.41c7.3958 0 13.281 2.2396 17.656 6.7188 4.375 4.375 6.5625 10.365 6.5625 17.969 0 7.3958-2.2396 13.333-6.7188 17.812-4.375 4.4792-10.208 6.7188-17.5 6.7188-7.7083 0-13.75-2.1875-18.125-6.5625-4.375-4.4792-6.5625-10.469-6.5625-17.969 0-7.6042 2.1875-13.594 6.5625-17.969 4.375-4.4792 10.417-6.7188 18.125-6.7188zm112.97 30.312v41.406h33.594v32.656h-33.594v81.562c-1e-5 7.2917 1.3021 12.656 3.9062 16.094 2.6042 3.3333 6.7708 5 12.5 5 4.5833 0 9.8958-0.625 15.938-1.875l3.2813 33.281c-11.979 3.3333-23.854 5-35.625 5-14.063 0-24.844-3.8021-32.344-11.406-7.3958-7.7083-11.094-19.115-11.094-34.219v-93.438h-21.406v-32.656h23.594l2.1875-38.125 39.062-3.2812zm-165.94 25.625h0.625l1.5625 35.625h-0.625c-9.0625 0-16.927 1.1458-23.594 3.4375 5.5208 8.75 8.2812 18.906 8.2813 30.469 0 10.521-2.5 20-7.5 28.438-5 8.4375-12.865 15.156-23.594 20.156-10.625 4.8958-24.062 7.3438-40.312 7.3438-7.6042 0-14.687-0.625-21.25-1.875-2.1875 2.1875-3.8542 4.1667-5 5.9375-1.0416 1.7708-1.5625 3.75-1.5625 5.9375 0 2.9167 1.0938 5.0521 3.2813 6.4062 2.1875 1.3542 5.3125 2.3438 9.375 2.9688 4.0625 0.52083 10.573 1.0417 19.531 1.5625l7.8125 0.46875c19.688 1.25 34.635 2.9688 44.844 5.1562 10.312 2.0833 18.75 6.6667 25.312 13.75 6.5625 7.0833 9.8438 17.969 9.8437 32.656 1e-5 17.812-7.1354 31.042-21.406 39.688-14.271 8.75-36.875 13.125-67.812 13.125-19.583 0-35.26-1.3542-47.031-4.0625-11.771-2.6042-20.417-6.9271-25.937-12.969-5.4167-6.0417-8.125-14.219-8.125-24.531 0-7.1875 1.875-13.646 5.625-19.375 3.75-5.625 9.3229-11.042 16.719-16.25-6.9792-5.5208-10.469-13.49-10.469-23.906 0-7.0833 1.7708-13.438 5.3125-19.062 3.5417-5.7292 8.6458-11.198 15.312-16.406-7.9167-4.7917-13.958-11.042-18.125-18.75s-6.25-16.51-6.25-26.406c0-10.833 2.3958-20.521 7.1875-29.062 4.8958-8.5417 12.604-15.312 23.125-20.312 10.625-5.1042 24.167-7.6562 40.625-7.6562 17.396 0 31.771 3.125 43.125 9.375 5.4167-7.2917 11.354-12.76 17.812-16.406 6.5625-3.6458 14.323-5.4688 23.281-5.4688zm30.781 15.781h43.906v168.91h-43.906v-168.91zm-115.31 26.562c-9.6875 0-16.979 2.4479-21.875 7.3438-4.7916 4.7917-7.1875 11.406-7.1875 19.844 0 8.3333 2.3959 14.792 7.1875 19.375 4.8958 4.5833 11.875 6.875 20.938 6.875 10.833 0 18.542-2.2917 23.125-6.875 4.6875-4.5833 7.0313-11.042 7.0313-19.375 0-8.4375-2.3959-15.052-7.1875-19.844-4.6875-4.8958-12.031-7.3438-22.031-7.3438zm-31.719 141.56c-2.5 3.125-4.375 6.1979-5.625 9.2188-1.1458 3.0208-1.7188 6.4062-1.7188 10.156 3e-5 4.6875 1.4584 8.2292 4.375 10.625 3.0208 2.3958 7.5 3.9583 13.438 4.6875 6.0417 0.83333 14.427 1.25 25.156 1.25 15.729 0 27.292-1.1979 34.688-3.5938 7.3958-2.2917 11.094-6.4062 11.094-12.344 0-4.1667-1.5104-7.2917-4.5312-9.375-3.0208-1.9792-7.5-3.4375-13.438-4.375-5.8333-0.83333-15.104-1.7188-27.812-2.6562l-6.25-0.46875c-1.0417-0.10416-4.8438-0.41666-11.406-0.9375-6.5625-0.41667-12.552-1.1458-17.969-2.1875z" stroke-width="13.653"/>
</svg>
